<svg width="121" height="74" viewBox="0 0 121 74" fill="none" xmlns="http://www.w3.org/2000/svg">
<path d="M82.3989 73.1327C102.318 73.1327 118.465 56.9852 118.465 37.0663C118.465 17.1475 102.318 1 82.3989 1C62.48 1 46.3325 17.1475 46.3325 37.0663C46.3325 56.9852 62.48 73.1327 82.3989 73.1327Z" fill="#964529"/>
<path d="M83.9335 73.1327C103.852 73.1327 120 56.9852 120 37.0663C120 17.1475 103.852 1 83.9335 1C64.0146 1 47.8672 17.1475 47.8672 37.0663C47.8672 56.9852 64.0146 73.1327 83.9335 73.1327Z" fill="#FF8500" stroke="#DB6D00" stroke-width="0.75" stroke-miterlimit="10"/>
<path d="M83.9336 70.7265C102.524 70.7265 117.594 55.6563 117.594 37.0664C117.594 18.4764 102.524 3.40625 83.9336 3.40625C65.3436 3.40625 50.2734 18.4764 50.2734 37.0664C50.2734 55.6563 65.3436 70.7265 83.9336 70.7265Z" fill="#FFB600"/>
<mask id="mask0_2_27796" style="mask-type:luminance" maskUnits="userSpaceOnUse" x="50" y="3" width="68" height="68">
<path d="M83.9336 70.7265C102.524 70.7265 117.594 55.6563 117.594 37.0664C117.594 18.4764 102.524 3.40625 83.9336 3.40625C65.3436 3.40625 50.2734 18.4764 50.2734 37.0664C50.2734 55.6563 65.3436 70.7265 83.9336 70.7265Z" fill="white"/>
</mask>
<g mask="url(#mask0_2_27796)">
<path d="M60.946 52.4555C61.1686 52.7894 61.3259 53.0964 61.418 53.3766C61.5101 53.6567 61.5485 53.91 61.5332 54.1364C61.5178 54.3629 61.4487 54.5663 61.3298 54.7428C61.2108 54.9193 61.0496 55.0767 60.8424 55.211C60.7273 55.2877 60.6083 55.3415 60.4778 55.3798C60.3512 55.4144 60.2168 55.4297 60.0787 55.4221C59.9405 55.4144 59.7947 55.3798 59.6489 55.3184C59.4992 55.257 59.3495 55.1688 59.196 55.0536C59.338 55.4451 59.3764 55.7828 59.2996 56.0668C59.2267 56.3508 59.0464 56.5849 58.7547 56.7768C58.5436 56.9149 58.321 57.0032 58.0869 57.0416C57.8528 57.0799 57.6149 57.0646 57.3808 56.9955C57.1429 56.9264 56.9126 56.8036 56.69 56.6232C56.4636 56.4429 56.2525 56.2049 56.0607 55.9094L54.7827 53.9753L59.7755 50.6787L60.946 52.4517V52.4555ZM56.8359 55.3722C56.9433 55.5372 57.0546 55.66 57.1659 55.7406C57.2772 55.8212 57.3847 55.8711 57.4959 55.8903C57.6034 55.9094 57.7109 55.9056 57.8145 55.8749C57.9181 55.8442 58.014 55.7982 58.1061 55.7368C58.2059 55.6715 58.2865 55.5948 58.3479 55.5142C58.4093 55.4297 58.4438 55.3376 58.4554 55.234C58.4669 55.1304 58.4554 55.0153 58.4131 54.8886C58.3709 54.762 58.3019 54.62 58.1982 54.4626L57.6188 53.5838L56.2525 54.4857L56.8359 55.3722ZM59.6719 52.233L58.321 53.1233L58.7701 53.8026C58.866 53.9484 58.9619 54.0674 59.0617 54.1633C59.1615 54.2592 59.2613 54.3283 59.3649 54.3705C59.4685 54.4128 59.576 54.4243 59.6873 54.4051C59.7985 54.3897 59.9175 54.3398 60.0403 54.2592C60.1631 54.1787 60.2591 54.0904 60.3243 54.0021C60.3895 53.91 60.4241 53.8141 60.4318 53.7105C60.4394 53.6068 60.4202 53.4956 60.3742 53.3728C60.3281 53.2499 60.2591 53.1195 60.1631 52.9736L59.6757 52.233H59.6719Z" fill="#E28600" stroke="#E28600" stroke-width="0.75" stroke-miterlimit="10"/>
<path d="M62.7384 63.3429L61.9248 62.5753C61.7713 62.4333 61.7175 62.2683 61.7598 62.0918L62.1934 59.9772C62.2088 59.8928 62.2049 59.8199 62.1896 59.7585C62.1704 59.6971 62.1205 59.628 62.0437 59.5512L61.7367 59.2634L60.171 60.9213L59.2729 60.0732L63.3831 55.7251L64.7493 57.0184C65.0525 57.3062 65.2827 57.5825 65.4401 57.8512C65.5974 58.1198 65.6895 58.3731 65.7241 58.6149C65.7548 58.8566 65.7317 59.0869 65.6473 59.3018C65.5667 59.5167 65.4362 59.7163 65.2597 59.9043C65.1254 60.0501 64.9757 60.1653 64.8107 60.2574C64.6495 60.3456 64.4768 60.407 64.3003 60.4416C64.1237 60.4723 63.9357 60.4761 63.7477 60.4531C63.5558 60.4262 63.3639 60.3725 63.172 60.2842C63.1989 60.3725 63.2181 60.4608 63.2257 60.5529C63.2334 60.645 63.2257 60.7409 63.2104 60.8407L62.746 63.362L62.7384 63.3429ZM62.7959 59.06C62.9418 59.1982 63.0837 59.298 63.2257 59.3632C63.3677 59.4246 63.5021 59.4591 63.6325 59.4553C63.763 59.4553 63.8858 59.4246 64.0009 59.367C64.1161 59.3095 64.2235 59.2289 64.3195 59.1253C64.5152 58.918 64.5958 58.6954 64.5689 58.4498C64.5382 58.2081 64.3847 57.9509 64.1046 57.69L63.6364 57.2486L62.3354 58.6225L62.7959 59.06Z" fill="#E28600" stroke="#E28600" stroke-width="0.75" stroke-miterlimit="10"/>
<path d="M69.4696 67.5298L68.6368 67.0501C68.5447 66.9963 68.4795 66.9311 68.4488 66.8544C68.4143 66.7776 68.4066 66.6932 68.4181 66.6087L68.6407 65.4191L66.576 64.2256L65.655 65.0123C65.5974 65.0583 65.5245 65.089 65.4362 65.1044C65.348 65.1197 65.2597 65.1005 65.1676 65.0468L64.3271 64.5633L69.343 60.5491L70.4405 61.1823L69.4696 67.5336V67.5298ZM68.8019 64.5211L69.1549 62.6099C69.1703 62.5063 69.1895 62.3912 69.2202 62.2568C69.247 62.1225 69.2816 61.9805 69.3238 61.8309C69.2125 61.946 69.1089 62.0496 69.0053 62.1379C68.9016 62.23 68.8095 62.3067 68.7289 62.372L67.2591 63.6307L68.798 64.5211H68.8019Z" fill="#E28600" stroke="#E28600" stroke-width="0.75" stroke-miterlimit="10"/>
<path d="M76.4734 64.8011C76.4197 64.851 76.366 64.8817 76.3199 64.897C76.2738 64.9124 76.2201 64.9124 76.1587 64.8932C76.1012 64.874 76.0436 64.8356 75.9899 64.7742C75.9361 64.7128 75.8709 64.6438 75.798 64.5708C75.7251 64.4941 75.633 64.4173 75.5332 64.3444C75.4296 64.2677 75.3029 64.2063 75.1456 64.1564C74.8731 64.072 74.6505 64.0681 74.474 64.1487C74.3013 64.2293 74.1823 64.3675 74.1209 64.5632C74.0825 64.6898 74.0864 64.8049 74.1363 64.9124C74.1862 65.0199 74.2629 65.1196 74.3665 65.2194C74.4702 65.3192 74.593 65.4151 74.7311 65.5111C74.8693 65.607 75.0151 65.7068 75.1571 65.8142C75.3029 65.9217 75.4411 66.0368 75.5716 66.1635C75.702 66.2863 75.8095 66.4283 75.8978 66.5818C75.9822 66.7353 76.0398 66.908 76.0628 67.096C76.0858 67.2841 76.0628 67.499 75.986 67.7408C75.9054 68.0017 75.7826 68.232 75.6214 68.4277C75.4603 68.6273 75.2684 68.7846 75.0458 68.8997C74.8232 69.0149 74.5699 69.0839 74.2898 69.1031C74.0096 69.1223 73.7103 69.0801 73.3918 68.9803C73.2114 68.9228 73.0349 68.8498 72.866 68.7577C72.6971 68.6656 72.5398 68.5582 72.394 68.443C72.2481 68.3241 72.1138 68.1974 71.9987 68.0593C71.8797 67.9211 71.7838 67.7791 71.707 67.6333L72.229 67.1805C72.2712 67.1459 72.3211 67.1229 72.3748 67.1114C72.4324 67.0999 72.4861 67.0999 72.536 67.1152C72.605 67.1382 72.6741 67.1881 72.7355 67.2649C72.7969 67.3416 72.8698 67.4261 72.9543 67.522C73.0387 67.618 73.1385 67.7101 73.2574 67.806C73.3764 67.9019 73.5299 67.9787 73.718 68.0363C73.9943 68.1207 74.2245 68.1245 74.4164 68.0478C74.6083 67.9672 74.7426 67.806 74.8194 67.5565C74.8654 67.4107 74.8616 67.2841 74.8194 67.1728C74.7733 67.0615 74.6966 66.954 74.5968 66.8581C74.4932 66.7583 74.3742 66.6662 74.2322 66.5741C74.0902 66.482 73.9482 66.3861 73.8024 66.2824C73.6566 66.1788 73.5184 66.0675 73.3841 65.9447C73.2536 65.8219 73.1462 65.6838 73.0617 65.5226C72.9773 65.3652 72.9274 65.1849 72.9082 64.9815C72.889 64.7781 72.9197 64.5478 73.0042 64.283C73.0694 64.072 73.1769 63.8762 73.3227 63.7035C73.4685 63.5308 73.6489 63.3927 73.86 63.2891C74.071 63.1854 74.309 63.124 74.5776 63.101C74.8462 63.0818 75.1302 63.1164 75.4372 63.2162C75.7826 63.3236 76.082 63.4771 76.3429 63.6728C76.6039 63.8686 76.8034 64.095 76.9454 64.3483L76.4811 64.8126L76.4734 64.8011Z" fill="#E28600" stroke="#E28600" stroke-width="0.75" stroke-miterlimit="10"/>
<path d="M79.4203 70.2084L78.1846 70.0395L78.9905 64.1104L80.2262 64.2792L79.4203 70.2084Z" fill="#E28600" stroke="#E28600" stroke-width="0.75" stroke-miterlimit="10"/>
<path d="M86.0747 69.345L86.1016 70.3505L82.5517 70.4464L82.3867 64.4635L83.6224 64.429L83.7606 69.4064L86.0747 69.3412V69.345Z" fill="#E28600" stroke="#E28600" stroke-width="0.75" stroke-miterlimit="10"/>
<path d="M100.317 55.3336C100.217 56.5118 101.299 57.4136 102.251 58.1159C103.203 58.822 104.235 59.8237 103.989 60.9826C103.732 62.1915 102.305 62.6559 101.149 63.0818C98.3709 64.1103 95.9494 66.1289 93.0251 66.5933C89.9933 67.073 86.9846 65.7989 84.21 64.4903C79.0138 62.0457 73.6641 59.1598 70.6592 54.2667C72.8697 54.7772 75.0111 54.8232 77.2791 54.8462C78.2731 54.8577 79.2978 54.8117 80.2073 54.4164C81.1168 54.0173 81.8997 53.1884 81.9803 52.1982" stroke="#E28600" stroke-width="0.75" stroke-miterlimit="10"/>
<path d="M87.6136 46.5992C86.8115 46.108 85.8751 45.8432 84.9349 45.8432C84.2633 45.8432 83.5994 45.9736 82.9278 45.9545C82.2562 45.9353 81.5462 45.7357 81.1279 45.2099C81.3198 44.9183 81.3889 44.5921 81.6614 44.3772C81.9338 44.1623 82.3061 44.0395 82.64 44.1431C82.924 44.2352 83.1619 44.4808 83.4574 44.477C83.6723 44.477 83.8604 44.3388 84.0637 44.2736C84.4245 44.1584 84.8313 44.2659 85.1498 44.477C85.4683 44.688 85.7178 44.9835 85.9596 45.2752" stroke="#E28600" stroke-width="0.75" stroke-miterlimit="10"/>
<path d="M81.4463 46.814C81.7571 47.4242 82.398 47.8118 83.0658 47.9614C83.7335 48.1111 84.4282 48.0535 85.1036 47.9614C85.779 47.8693 86.4583 47.7465 87.1414 47.7657" stroke="#E28600" stroke-width="0.75" stroke-miterlimit="10"/>
<path d="M81.7271 49.6732C83.4041 48.9824 85.4381 49.2625 86.8695 50.3755" stroke="#E28600" stroke-width="0.75" stroke-miterlimit="10"/>
<path d="M86.1513 39.8487C86.558 39.3958 87.3563 39.3805 87.7823 39.818C88.2082 40.2555 88.1737 41.0499 87.7132 41.449C87.08 41.9939 86.1244 41.6907 85.2916 41.7406C84.643 41.779 84.0367 42.0515 83.3996 42.1781C82.7626 42.3048 82.0181 42.2472 81.5921 41.7598C81.1086 41.2072 81.2352 40.3668 81.3849 39.6491C81.6612 38.3481 81.9413 37.0472 82.2177 35.7424C82.4249 34.7676 82.636 33.7775 82.5976 32.7797C82.5592 31.7819 82.2483 30.7572 81.5422 30.0511C80.5252 29.0303 78.7407 28.9075 77.5933 29.7748" stroke="#E28600" stroke-width="0.75" stroke-miterlimit="10"/>
<path d="M85.5991 29.1339C89.2142 27.8214 93.5891 28.9957 96.0644 31.9392" stroke="#E28600" stroke-width="0.75" stroke-miterlimit="10"/>
<path d="M81.6156 32.6992C81.0937 32.1159 80.3185 31.7705 79.5356 31.7705C78.7527 31.7705 77.9775 32.1197 77.4556 32.7031C78.6568 33.6471 80.3722 33.5896 81.6194 32.7031L81.6156 32.6992Z" stroke="#E28600" stroke-width="0.75" stroke-miterlimit="10"/>
<path d="M78.0161 34.0654C79.1444 34.7216 80.691 34.5643 81.6657 33.6931" stroke="#E28600" stroke-width="0.75" stroke-miterlimit="10"/>
<path d="M81.5772 31.6858C80.5794 30.6113 78.8678 30.2736 77.5361 30.8914" stroke="#E28600" stroke-width="0.75" stroke-miterlimit="10"/>
<path d="M94.4758 32.6915C93.5931 32.0774 92.6184 31.5517 91.5553 31.3636C90.4923 31.1794 89.3295 31.3713 88.5044 32.0582C89.3448 32.845 90.1968 33.4206 91.3404 33.5242C92.4879 33.6317 93.501 33.3055 94.4758 32.6876V32.6915Z" stroke="#E28600" stroke-width="0.75" stroke-miterlimit="10"/>
<path d="M88.1582 33.2209C88.9833 34.0038 90.0847 34.4912 91.2207 34.5641C92.3566 34.6409 93.5117 34.3032 94.4328 33.6354" stroke="#E28600" stroke-width="0.75" stroke-miterlimit="10"/>
<path d="M88.3198 31.2484C89.1641 30.454 90.4229 30.2046 91.5626 30.3926C92.7063 30.5845 93.7501 31.164 94.6865 31.8471" stroke="#E28600" stroke-width="0.75" stroke-miterlimit="10"/>
<path d="M86.2398 32.6646C86.0594 33.0905 86.0978 33.6009 86.3434 33.9962C86.589 34.3877 87.0304 34.6486 87.4947 34.6716" stroke="#E28600" stroke-width="0.75" stroke-miterlimit="10"/>
<path d="M99.4449 47.4817C98.7157 49.7344 96.6472 51.3462 94.4137 52.1329C92.1802 52.9158 89.7701 52.9964 87.4061 53.0693C85.4911 53.1269 83.3689 53.1154 81.9413 51.8374C80.8936 50.8972 80.4561 49.4696 80.0647 48.1149C78.8059 43.7438 77.2363 39.2538 77.0176 34.71" stroke="#E28600" stroke-width="0.75" stroke-miterlimit="10"/>
<path d="M77.0216 34.7099C76.5764 33.7697 76.1351 32.8065 75.9816 31.778C75.8242 30.7495 75.9893 29.625 76.6493 28.8191C77.0676 28.3087 77.6778 27.9288 77.9234 27.3148C78.2381 26.5281 77.862 25.6032 78.1268 24.8011C78.4262 23.8954 79.4048 23.4464 80.2414 22.9859C82.448 21.777 84.4014 19.816 85.641 17.6477C85.3378 18.9218 85.6448 20.8982 86.4814 21.9037C86.9534 22.4716 87.556 22.9091 88.1546 23.3428C88.7879 23.7995 89.5707 24.283 90.2961 23.9914C90.9523 23.7304 91.2324 22.959 91.7774 22.5062C92.6754 21.7655 94.0838 22.0956 94.9895 22.8247C95.899 23.5539 96.4939 24.5977 97.2883 25.4535C97.9176 26.1328 98.6737 26.6931 99.257 27.4107C99.9363 28.2435 100.355 29.2528 100.765 30.2467C101.099 31.0527 101.437 31.8816 101.46 32.7527C101.483 33.6431 101.18 34.5564 101.437 35.4084C101.709 36.3141 102.592 37.1123 102.346 38.0295C102.25 38.3903 101.986 38.6858 101.893 39.0465C101.732 39.6874 102.143 40.3129 102.385 40.9308C102.626 41.5487 102.573 42.4505 101.936 42.6309" stroke="#E28600" stroke-width="0.75" stroke-miterlimit="10"/>
<path d="M75.4138 31.9394C74.1973 31.6093 73.1957 30.719 72.4857 29.679C71.7757 28.639 71.3152 27.4531 70.8662 26.275C72.5318 26.9542 74.0783 28.1516 75.387 29.3873C73.7828 28.0403 72.9577 25.6264 73.1228 23.5349C73.9862 24.1796 74.7998 24.8704 75.2987 25.8221C73.802 23.769 73.4566 20.7257 74.2664 18.3157C75.3294 19.82 75.9204 21.8118 75.978 23.6539" stroke="#E28600" stroke-width="0.75" stroke-miterlimit="10"/>
<path d="M74.6347 13.5377C74.8189 12.3173 75.4636 11.1545 76.3808 10.2872C77.7547 8.99008 79.6351 8.33384 81.5117 8.11893C83.3884 7.90402 85.2842 8.09207 87.1646 8.28779C90.7797 8.66388 94.5368 9.11672 97.5839 11.0931C99.4029 12.2751 100.926 13.9752 102.972 14.6967C104.292 15.1649 105.735 15.1841 107.051 15.6523C108.368 16.1205 109.826 17.172 109.692 18.565C105.635 18.8605 101.656 17.5327 97.7719 16.32C94.011 15.1457 90.1964 14.0558 86.2743 13.6874C82.3522 13.319 78.2881 13.7027 74.7191 15.3683C74.5694 14.7811 74.3699 13.8179 74.8189 13.3266C75.3331 12.7625 76.7224 12.4401 77.4285 12.1638C79.2629 11.45 81.2086 10.9204 83.1965 11.024C85.6756 11.1545 87.9936 12.2483 90.4343 12.7049C92.3723 13.0695 94.3756 13.0273 96.2944 13.4801C100.838 14.5509 105.029 18.4883 109.696 18.5612" stroke="#E28600" stroke-width="0.75" stroke-miterlimit="10"/>
<path d="M82.9089 21.0557C81.7077 20.7256 79.5279 21.1171 78.5032 21.8232C77.4748 22.5293 76.7801 23.6998 76.6573 24.9355C76.5345 26.1329 76.8838 27.4799 76.1776 28.4508C75.886 28.8499 75.4523 29.1263 75.1798 29.5369C74.9074 29.9475 74.8882 30.6114 75.3257 30.8379" stroke="#E28600" stroke-width="0.75" stroke-miterlimit="10"/>
<path d="M86.2743 13.6951C85.9442 17.5865 85.004 18.4653 84.0945 18.9795C83.1849 19.4899 82.1066 19.5859 81.0666 19.6818C80.0266 19.7739 78.9482 19.8891 78.054 20.4302C77.1752 20.9636 76.565 21.8654 76.1966 22.8249C75.8281 23.7843 75.6785 24.8128 75.5288 25.8298" stroke="#E28600" stroke-width="0.75" stroke-miterlimit="10"/>
<path d="M86.2746 13.6951C85.9561 14.478 84.4249 16.178 83.6113 16.416C82.7977 16.6539 81.9419 16.6923 81.1168 16.8688C78.6262 17.4099 76.4809 19.3211 75.6597 21.735" stroke="#E28600" stroke-width="0.75" stroke-miterlimit="10"/>
<path d="M75.2485 19.8275C75.4519 18.4076 76.208 17.0759 77.317 16.1702C78.4261 15.2645 79.8806 14.7925 81.312 14.8731C81.9875 14.9115 82.6552 15.0688 83.3307 15.0343C84.0061 14.9997 85.1305 14.2168 85.449 13.6182" stroke="#E28600" stroke-width="0.75" stroke-miterlimit="10"/>
<path d="M85.6992 16.9033C85.6262 17.5979 86.1213 19.0678 86.3516 19.7278C86.5818 20.3879 87.1651 20.9751 87.8636 20.9943C88.1898 21.0019 88.5045 20.8906 88.8269 20.8369C89.1492 20.7794 89.51 20.7909 89.7594 21.0019C90.0472 21.2476 90.0856 21.6812 90.312 21.9844C90.5576 22.3106 91.6092 22.537 91.9929 22.3873" stroke="#E28600" stroke-width="0.75" stroke-miterlimit="10"/>
<path d="M86.071 15.4795C85.7679 16.4926 87.3566 18.2081 88.3506 18.565C89.1949 18.8681 90.1773 18.6072 91.0024 18.9641C92.0271 19.4054 92.549 20.6718 93.6159 20.9865C94.1531 21.1439 94.725 21.0287 95.2814 20.9865C95.8379 20.9443 96.4634 21.0211 96.828 21.4471C97.3538 22.0649 97.0467 23.0512 97.4228 23.765C97.9294 24.7167 99.3609 24.7474 100.032 25.5917C100.689 26.4168 100.409 27.7485 101.138 28.5045C101.836 29.2298 103.137 29.0763 103.813 29.8247C104.277 30.3389 104.285 31.1141 104.204 31.8011C104.123 32.488 103.981 33.2095 104.227 33.8581C104.641 34.9518 105.942 35.3663 107.078 35.6426" stroke="#E28600" stroke-width="0.75" stroke-miterlimit="10"/>
<path d="M87.6826 13.8677C87.8131 14.8079 89.9046 16.8611 90.8065 17.1527C91.7083 17.4444 92.6754 17.429 93.6195 17.5288C94.5635 17.6286 95.5498 17.8704 96.2099 18.5535C96.8777 19.2442 97.081 20.242 97.5262 21.0902C98.0098 22.015 98.8809 22.8094 99.9209 22.9015C100.535 22.9553 101.195 22.7749 101.751 23.0397C102.607 23.4503 102.692 24.6016 103.052 25.4804C103.486 26.5473 104.507 27.3532 105.643 27.5336" stroke="#E28600" stroke-width="0.75" stroke-miterlimit="10"/>
<path d="M94.2148 15.487C95.3546 15.2299 96.4791 16.0128 97.1967 16.9377C97.9144 17.8587 98.4056 18.9601 99.2422 19.7737C100.167 20.6717 101.426 21.1322 102.493 21.8537C103.855 22.7747 104.907 24.1448 105.444 25.699C105.682 26.3898 105.824 27.119 106.165 27.7637C106.507 28.4084 107.109 28.9841 107.839 29.0263" stroke="#E28600" stroke-width="0.75" stroke-miterlimit="10"/>
<path d="M99.5874 25.0968C100.65 24.7745 101.767 25.4806 102.462 26.3479C103.156 27.2152 103.613 28.2667 104.388 29.0573C104.926 29.6061 105.593 30.0014 106.188 30.4849C106.787 30.9646 107.336 31.571 107.497 32.3193C107.623 32.9026 107.497 33.509 107.543 34.1C107.585 34.6948 107.884 35.3511 108.464 35.4931" stroke="#E28600" stroke-width="0.75" stroke-miterlimit="10"/>
<path d="M101.364 33.1213C102.462 33.2288 103.433 34.1191 103.636 35.2014C103.767 35.8883 103.613 36.5944 103.617 37.2967C103.621 37.999 103.847 38.7781 104.465 39.1043C104.926 39.346 105.505 39.2808 105.943 39.5571C106.449 39.8756 106.607 40.5779 106.453 41.1574" stroke="#E28600" stroke-width="0.75" stroke-miterlimit="10"/>
<path d="M103.164 54.4739C101.476 52.4284 101.173 49.343 102.439 47.0097C103.471 45.1023 106.089 43.2948 106.453 41.1572" stroke="#E28600" stroke-width="0.75" stroke-miterlimit="10"/>
<path d="M107.777 53.7988C106.606 54.4128 105.087 54.0866 104.089 53.2193C103.091 52.352 102.558 51.0434 102.381 49.7347C102.197 48.3647 102.42 46.8411 103.402 45.874C103.026 47.9041 103.563 49.9765 104.841 51.5998C105.313 52.1985 105.923 52.7473 106.672 52.9085C107.42 53.0696 108.314 52.7281 108.568 52.0066" stroke="#E28600" stroke-width="0.75" stroke-miterlimit="10"/>
<path d="M106.713 26.8122C107.623 24.2639 107.193 20.9252 105.416 18.8835C104.821 21.5853 105.255 24.4635 106.713 26.8122Z" stroke="#E28600" stroke-width="0.75" stroke-miterlimit="10"/>
<path d="M111.331 42.0132C112.666 40.2939 114.477 38.9469 116.508 38.1602C116.066 40.9271 114.343 43.2527 111.91 44.6381" stroke="#E28600" stroke-width="0.75" stroke-miterlimit="10"/>
<path d="M111.488 49.6079C112.332 47.7543 112.482 45.5898 111.895 43.6365C111.308 41.6831 109.991 39.96 108.264 38.8816C107.431 40.9386 107.685 43.2795 108.832 45.1754C109.784 46.745 111.38 48.0574 111.557 49.8842" stroke="#E28600" stroke-width="0.75" stroke-miterlimit="10"/>
<path d="M105.889 47.5853C105.543 48.5563 105.958 49.7421 106.836 50.2871C107.569 50.7437 108.483 50.7476 109.342 50.7898C110.202 50.832 111.138 50.9625 111.741 51.5804C111.668 50.6017 111.518 49.7076 111.2 48.7789C110.885 47.8501 110.294 46.9752 109.427 46.5185C108.456 46.0081 107.293 46.0887 106.199 46.1808" stroke="#E28600" stroke-width="0.75" stroke-miterlimit="10"/>
<path d="M111.365 41.8367C111.488 40.5626 111.189 39.2501 110.525 38.1525C109.861 37.0588 108.836 36.1838 107.646 35.7041C107.332 37.055 107.478 38.3022 107.838 39.6415" stroke="#E28600" stroke-width="0.75" stroke-miterlimit="10"/>
<path d="M110.659 38.1141C111.411 36.0341 113.062 34.2956 115.103 33.4321C115.096 35.4661 114.75 37.6843 113.971 39.5647" stroke="#E28600" stroke-width="0.75" stroke-miterlimit="10"/>
<path d="M107.497 32.3462C107.792 30.5233 108.759 28.7964 110.148 27.5798C112.221 30.508 112.297 34.7064 110.333 37.7113" stroke="#E28600" stroke-width="0.75" stroke-miterlimit="10"/>
<path d="M111.396 30.3505C111.875 28.9267 112.65 27.6066 113.66 26.4937C114.362 27.6411 114.523 29.0188 114.427 30.362C114.331 31.7052 113.959 33.01 113.591 34.3033" stroke="#E28600" stroke-width="0.75" stroke-miterlimit="10"/>
<path d="M109.093 28.7733C108.007 27.929 107.558 26.4515 107.669 25.0814C107.78 23.7114 108.375 22.4258 109.066 21.2361C110.547 23.5809 111.641 26.2749 111.879 29.038" stroke="#E28600" stroke-width="0.75" stroke-miterlimit="10"/>
<path d="M112.689 27.5107C113.134 26.6894 113.103 25.634 112.608 24.8397C112.113 24.0491 111.177 23.554 110.244 23.5963" stroke="#E28600" stroke-width="0.75" stroke-miterlimit="10"/>
<path d="M106.376 18.5574C106.825 19.2443 107.466 19.8046 108.203 20.1615C108.798 20.4493 109.446 20.6067 110.064 20.8523C110.682 21.0979 111.284 21.4471 111.634 22.0074C111.983 22.5677 112.006 23.3775 111.534 23.8418" stroke="#E28600" stroke-width="0.75" stroke-miterlimit="10"/>
<path d="M49.2637 46.3613L54.9127 53.0312" stroke="#E28600" stroke-width="0.75" stroke-miterlimit="10"/>
<path d="M48.7539 43.2949L56.222 52.1369" stroke="#E28600" stroke-width="0.75" stroke-miterlimit="10"/>
<path d="M47.9248 39.979L57.5305 51.3385" stroke="#E28600" stroke-width="0.75" stroke-miterlimit="10"/>
<path d="M56.8628 50.4983L63.7399 44.8684" stroke="#E28600" stroke-width="0.75" stroke-miterlimit="10"/>
<path d="M55.8652 49.3239L62.7423 43.6941" stroke="#E28600" stroke-width="0.75" stroke-miterlimit="10"/>
<path d="M54.7939 48.1113L61.671 42.4814" stroke="#E28600" stroke-width="0.75" stroke-miterlimit="10"/>
<path d="M52.8364 45.4402L58.0019 45.5476" stroke="#E28600" stroke-width="0.75" stroke-miterlimit="10"/>
<path d="M51.3018 43.5867L59.8904 43.9436" stroke="#E28600" stroke-width="0.75" stroke-miterlimit="10"/>
<path d="M49.7705 42.0554L61.2451 42.6618" stroke="#E28600" stroke-width="0.75" stroke-miterlimit="10"/>
<path d="M49.2031 41.3069L59.8565 33.1826" stroke="#E28600" stroke-width="0.75" stroke-miterlimit="10"/>
<path d="M47.8823 40.1289L61.671 29.2261" stroke="#E28600" stroke-width="0.75" stroke-miterlimit="10"/>
<path d="M47.3833 38.2407L61.172 27.3379" stroke="#E28600" stroke-width="0.75" stroke-miterlimit="10"/>
<path d="M53.6196 37.7803V42.1629" stroke="#E28600" stroke-width="0.75" stroke-miterlimit="10"/>
<path d="M55.2588 36.5676V42.3395" stroke="#E28600" stroke-width="0.75" stroke-miterlimit="10"/>
<path d="M44.7246 24.406L52.3155 34.5029" stroke="#E28600" stroke-width="0.75" stroke-miterlimit="10"/>
<path d="M43.3037 25.4883L50.8984 35.589" stroke="#E28600" stroke-width="0.75" stroke-miterlimit="10"/>
<path d="M46.2251 23.1931L53.8198 33.2938" stroke="#E28600" stroke-width="0.75" stroke-miterlimit="10"/>
<path d="M47.7246 21.7349L55.3193 31.8318" stroke="#E28600" stroke-width="0.75" stroke-miterlimit="10"/>
<path d="M50.481 25.4075L57.4924 19.605" stroke="#E28600" stroke-width="0.75" stroke-miterlimit="10"/>
<path d="M51.8159 27.3265L58.8273 21.5239" stroke="#E28600" stroke-width="0.75" stroke-miterlimit="10"/>
<path d="M55.0703 16.9338L62.8723 25.9485" stroke="#E28600" stroke-width="0.75" stroke-miterlimit="10"/>
<path d="M55.5732 14.6006L63.3752 23.6114" stroke="#E28600" stroke-width="0.75" stroke-miterlimit="10"/>
<path d="M56.3643 12.7202L64.1662 21.7349" stroke="#E28600" stroke-width="0.75" stroke-miterlimit="10"/>
<path d="M56.4478 23.6116L56.655 30.788" stroke="#E28600" stroke-width="0.75" stroke-miterlimit="10"/>
<path d="M58.2407 21.9844L58.4096 29.4947" stroke="#E28600" stroke-width="0.75" stroke-miterlimit="10"/>
<path d="M59.9946 22.4448L60.0368 28.2435" stroke="#E28600" stroke-width="0.75" stroke-miterlimit="10"/>
<path d="M58.4092 14.9731L72.9731 15.5181" stroke="#E28600" stroke-width="0.75" stroke-miterlimit="10"/>
<path d="M56.8242 13.2654L71.3843 13.8065" stroke="#E28600" stroke-width="0.75" stroke-miterlimit="10"/>
<path d="M60.7466 15.0996L65.4592 20.3994" stroke="#E28600" stroke-width="0.75" stroke-miterlimit="10"/>
<path d="M63.3325 15.1841L66.9629 19.1484" stroke="#E28600" stroke-width="0.75" stroke-miterlimit="10"/>
<path d="M60.9111 9.677L65.1671 13.5991" stroke="#E28600" stroke-width="0.75" stroke-miterlimit="10"/>
<path d="M60.4546 6.38037L68.2143 13.6796" stroke="#E28600" stroke-width="0.75" stroke-miterlimit="10"/>
<path d="M63.1641 6.54541L70.9276 13.8485" stroke="#E28600" stroke-width="0.75" stroke-miterlimit="10"/>
<path d="M67.3818 10.5097L78.4381 1.70605" stroke="#E28600" stroke-width="0.75" stroke-miterlimit="10"/>
<path d="M68.7559 11.972L81.1899 2.12451" stroke="#E28600" stroke-width="0.75" stroke-miterlimit="10"/>
<path d="M70.2173 13.1385L82.6513 3.29102" stroke="#E28600" stroke-width="0.75" stroke-miterlimit="10"/>
<path d="M66.126 9.38148L77.1861 0.577881" stroke="#E28600" stroke-width="0.75" stroke-miterlimit="10"/>
<path d="M80.23 8.29917L90.2885 0.286133" stroke="#E28600" stroke-width="0.75" stroke-miterlimit="10"/>
<path d="M86.447 3.33325L86.2397 8.21476" stroke="#E28600" stroke-width="0.75" stroke-miterlimit="10"/>
<path d="M88.1162 2.04004L88.1584 8.34148" stroke="#E28600" stroke-width="0.75" stroke-miterlimit="10"/>
<path d="M89.2876 1.08081L89.3298 8.67554" stroke="#E28600" stroke-width="0.75" stroke-miterlimit="10"/>
<path d="M89.8281 0.827393L91.0792 9.00929" stroke="#E28600" stroke-width="0.75" stroke-miterlimit="10"/>
<path d="M97.5916 2.95703L91.0791 9.00902" stroke="#E28600" stroke-width="0.75" stroke-miterlimit="10"/>
<path d="M92.7065 7.54712L104.811 8.2993" stroke="#E28600" stroke-width="0.75" stroke-miterlimit="10"/>
</g>
<path d="M83.9334 62.8977C98.1996 62.8977 109.765 51.3326 109.765 37.0664C109.765 22.8002 98.1996 11.2351 83.9334 11.2351C69.6671 11.2351 58.1021 22.8002 58.1021 37.0664C58.1021 51.3326 69.6671 62.8977 83.9334 62.8977Z" fill="#A7A7D1" stroke="#7373A8" stroke-width="0.75" stroke-miterlimit="10"/>
<path d="M83.9337 60.5028C96.8773 60.5028 107.37 50.0099 107.37 37.0662C107.37 24.1226 96.8773 13.6296 83.9337 13.6296C70.99 13.6296 60.4971 24.1226 60.4971 37.0662C60.4971 50.0099 70.99 60.5028 83.9337 60.5028Z" fill="#E9E9FF"/>
<mask id="mask1_2_27796" style="mask-type:luminance" maskUnits="userSpaceOnUse" x="60" y="13" width="48" height="48">
<path d="M83.9337 60.5028C96.8773 60.5028 107.37 50.0099 107.37 37.0662C107.37 24.1226 96.8773 13.6296 83.9337 13.6296C70.99 13.6296 60.4971 24.1226 60.4971 37.0662C60.4971 50.0099 70.99 60.5028 83.9337 60.5028Z" fill="white"/>
</mask>
<g mask="url(#mask1_2_27796)">
<path d="M102.381 16.6882C104.116 17.5671 105.582 18.9601 106.553 20.6487C107.52 22.3334 107.984 24.306 107.869 26.244C105.993 25.6875 104.58 24.0796 103.767 22.2989C102.953 20.5182 102.665 18.6263 102.385 16.6882H102.381Z" fill="#A7A7D1" stroke="#59598E" stroke-width="0.75" stroke-miterlimit="10"/>
<path d="M102.312 16.5847C103.049 17.168 103.621 17.9432 104.082 18.7645C104.546 19.5858 104.891 20.4608 105.244 21.3281C105.575 22.2031 105.916 23.0665 106.323 23.8993C106.73 24.7282 107.225 25.5226 107.862 26.2057C107.136 25.6071 106.58 24.8242 106.127 24.0029C105.67 23.1778 105.329 22.299 104.98 21.4355C104.65 20.5605 104.304 19.7009 103.89 18.872C103.475 18.0469 102.969 17.2601 102.316 16.5886L102.312 16.5847Z" fill="#59598E"/>
<path d="M107.851 23.9301C107.432 23.2393 106.964 22.5907 106.415 22.0151C105.874 21.4318 105.264 20.9175 104.608 20.4762L104.823 20.3841C104.581 21.5661 104.546 22.7941 104.75 24.0068C104.55 23.4235 104.443 22.8095 104.416 22.1878C104.381 21.5661 104.427 20.9405 104.546 20.3303L104.585 20.127L104.761 20.2382C105.452 20.6796 106.07 21.2284 106.596 21.8501C107.114 22.4794 107.555 23.1741 107.851 23.9262V23.9301Z" fill="#59598E"/>
<path d="M107.812 25.1006C107.8 24.8895 107.624 24.7667 107.463 24.6554C107.298 24.5403 107.133 24.4251 106.96 24.3215C106.622 24.1066 106.273 23.9186 105.912 23.742L106.108 23.6499C106.035 23.9224 106.012 24.2141 106.016 24.5057C106.027 24.7974 106.058 25.0967 106.139 25.3884H106.123L106.181 25.35L106.139 25.3999L106.131 25.4076L106.123 25.3961C105.962 25.1313 105.859 24.8319 105.809 24.5249C105.759 24.2141 105.759 23.8917 105.839 23.577L105.878 23.4197L106.031 23.4849C106.415 23.6499 106.772 23.8687 107.102 24.122C107.263 24.2525 107.42 24.3868 107.566 24.5364C107.701 24.6784 107.881 24.8818 107.816 25.0967L107.812 25.1006Z" fill="#59598E"/>
<path d="M105.843 19.6739C105.163 19.1596 104.446 18.7337 103.674 18.4382L103.859 18.3576C103.536 19.2019 103.387 20.1037 103.294 21.0286C103.149 20.1075 103.248 19.1404 103.594 18.2539L103.648 18.1196L103.782 18.1734C104.588 18.4919 105.321 19.0023 105.85 19.6777L105.843 19.6739Z" fill="#59598E"/>
<path d="M77.1336 28.7155C75.2724 27.9173 73.649 26.5626 72.5284 24.874C71.4078 23.1855 70.7938 21.163 70.7861 19.1367C72.7779 19.5896 74.3552 21.1707 75.3222 22.9705C76.2893 24.7704 76.7153 26.7161 77.1375 28.7155H77.1336Z" fill="#A7A7D1" stroke="#59598E" stroke-width="0.75" stroke-miterlimit="10"/>
<path d="M77.2134 28.8153C76.4114 28.255 75.7666 27.4875 75.2294 26.6662C74.6921 25.8411 74.2738 24.9546 73.8516 24.0758C73.4487 23.1893 73.0381 22.3105 72.5584 21.4739C72.0787 20.6373 71.5107 19.8467 70.7969 19.179C71.5874 19.7546 72.2206 20.5336 72.7464 21.3587C73.276 22.1877 73.6905 23.078 74.1126 23.953C74.5117 24.8395 74.93 25.7145 75.4174 26.5473C75.9048 27.38 76.4843 28.1629 77.2134 28.8153Z" fill="#59598E"/>
<path d="M70.9585 21.5467C71.4344 22.2375 71.9678 22.886 72.578 23.4502C73.1805 24.022 73.8483 24.517 74.5621 24.9315L74.3548 25.0351C74.5275 23.7879 74.4776 22.5099 74.1821 21.2627C74.4239 21.8575 74.5774 22.4907 74.6465 23.1316C74.7232 23.7725 74.7156 24.4288 74.635 25.0697L74.6081 25.2731L74.4239 25.1733C73.6794 24.7626 73.0001 24.2292 72.4091 23.619C71.8258 23.0012 71.3231 22.3065 70.9585 21.5467Z" fill="#59598E"/>
<path d="M70.9242 20.3227C70.9472 20.5453 71.1391 20.6604 71.3118 20.764C71.4922 20.8753 71.6725 20.9828 71.8567 21.0787C72.2213 21.2821 72.6012 21.4548 72.985 21.6121L72.797 21.7157C72.8545 21.4279 72.8584 21.1209 72.8315 20.8177C72.8008 20.5146 72.7432 20.2075 72.6396 19.9044H72.655L72.5974 19.9466L72.6396 19.8929L72.6473 19.8813L72.655 19.8929C72.8392 20.1577 72.9658 20.4608 73.0349 20.7794C73.104 21.0979 73.127 21.4318 73.0656 21.7656L73.0349 21.9268L72.8776 21.8693C72.4708 21.7234 72.0832 21.52 71.7224 21.2783C71.5459 21.1555 71.3732 21.025 71.212 20.8791C71.1314 20.8101 71.0508 20.7256 70.9894 20.6335C70.928 20.5414 70.8858 20.4225 70.9165 20.315L70.9242 20.3227Z" fill="#59598E"/>
<path d="M73.334 25.8372C74.0708 26.3323 74.846 26.7276 75.6711 26.9847L75.4907 27.0768C75.7709 26.1749 75.863 25.227 75.8937 24.2561C76.1009 25.204 76.0626 26.2171 75.7632 27.1612L75.721 27.2994L75.5867 27.2572C74.7309 26.9808 73.9327 26.4973 73.334 25.8372Z" fill="#59598E"/>
<path d="M83.3997 36.4216C81.9875 37.1891 80.3488 37.5345 78.7485 37.4002C77.1482 37.2658 75.5863 36.6557 74.3198 35.6694C75.5824 34.6524 77.3362 34.4452 78.9327 34.7291C80.5292 35.0131 81.9491 35.7039 83.3997 36.4216Z" fill="#A7A7D1" stroke="#59598E" stroke-width="0.75" stroke-miterlimit="10"/>
<path d="M83.5034 36.4216C82.7627 36.6595 81.9645 36.6902 81.1893 36.6211C80.4103 36.5597 79.6466 36.387 78.8944 36.2144C78.1422 36.034 77.3977 35.8574 76.6417 35.7346C75.8857 35.6157 75.1181 35.5773 74.3506 35.6809C75.0951 35.4583 75.8933 35.4391 76.6685 35.5159C77.4476 35.585 78.2074 35.7615 78.9596 35.9342C79.708 36.1146 80.4563 36.2873 81.2123 36.4024C81.9683 36.5137 82.7359 36.5405 83.5034 36.4216Z" fill="#59598E"/>
<path d="M75.9058 36.7438C76.5735 36.7745 77.2336 36.7515 77.8822 36.644C78.5307 36.5481 79.1639 36.3716 79.7703 36.1336L79.7242 36.36C79.0373 35.6386 78.2237 35.0399 77.3103 34.5947C78.2966 34.8595 79.1985 35.4352 79.9238 36.1643L80.0696 36.3102L79.8777 36.3907C79.2522 36.6555 78.5844 36.8167 77.9129 36.882C77.2374 36.9357 76.5582 36.905 75.9058 36.74V36.7438Z" fill="#59598E"/>
<path d="M75.1264 36.1645C75.2799 36.2528 75.4372 36.1837 75.5869 36.1223C75.7443 36.0609 75.8978 35.9995 76.0474 35.9304C76.3506 35.7999 76.6423 35.6464 76.9263 35.4852L76.8917 35.6963C76.7421 35.5236 76.5617 35.3663 76.3621 35.2319C76.1626 35.0976 75.9477 34.9787 75.7097 34.8866L75.7212 34.875V34.9288L75.702 34.875V34.8635H75.7136C75.9707 34.8712 76.2278 34.9364 76.4619 35.0477C76.6998 35.159 76.9224 35.3087 77.1028 35.5121L77.2102 35.6349L77.0683 35.7232C76.7766 35.9074 76.4581 36.0494 76.128 36.153C75.963 36.2029 75.7942 36.2412 75.6253 36.2681C75.4641 36.2911 75.2377 36.3142 75.1226 36.1607L75.1264 36.1645Z" fill="#59598E"/>
<path d="M79.7432 37.3735C80.4071 37.1355 81.0288 36.8439 81.5891 36.4563L81.5507 36.6558C81.1286 36.0418 80.5951 35.5199 80.0195 35.0056C80.7256 35.3203 81.3473 35.8461 81.7886 36.4985L81.8692 36.6174L81.7503 36.698C81.1516 37.0971 80.4531 37.3543 79.7432 37.3773V37.3735Z" fill="#59598E"/>
<path d="M79.0137 33.3667C77.4402 33.6891 75.7708 33.5432 74.278 32.9522C72.7851 32.3574 71.4688 31.3212 70.5439 30.0088C72.0445 29.4024 73.7868 29.7171 75.2297 30.4501C76.6727 31.1831 77.8317 32.2576 79.0098 33.3706L79.0137 33.3667Z" fill="#A7A7D1" stroke="#59598E" stroke-width="0.75" stroke-miterlimit="10"/>
<path d="M79.1096 33.3975C78.3306 33.4091 77.5592 33.2057 76.8377 32.914C76.1085 32.6262 75.4293 32.2424 74.7615 31.8586C74.0976 31.4672 73.4337 31.0796 72.7468 30.7457C72.0598 30.4157 71.3345 30.1509 70.5708 30.0281C71.3498 30.0319 72.1174 30.2468 72.835 30.5423C73.5603 30.8378 74.2358 31.2254 74.9035 31.6092C75.5674 32.0006 76.2313 32.3844 76.9221 32.7106C77.6129 33.0368 78.3421 33.2863 79.1096 33.3937V33.3975Z" fill="#59598E"/>
<path d="M71.7451 31.494C72.3745 31.7166 73.0154 31.8893 73.6639 31.9737C74.3125 32.0697 74.9687 32.085 75.6212 32.0351L75.5099 32.2385C75.0609 31.3482 74.4583 30.5384 73.7138 29.8477C74.5811 30.3888 75.2758 31.1985 75.7593 32.108L75.8552 32.2884L75.648 32.3114C74.9726 32.3844 74.2856 32.3421 73.6256 32.2078C72.9655 32.062 72.3208 31.8356 71.749 31.4902L71.7451 31.494Z" fill="#59598E"/>
<path d="M71.1694 30.7188C71.2922 30.8455 71.4611 30.8301 71.6223 30.8148C71.7873 30.7994 71.9523 30.7879 72.1173 30.7649C72.4474 30.7303 72.7697 30.6689 73.0883 30.596L72.9923 30.7879C72.9002 30.5768 72.7697 30.3773 72.6201 30.1892C72.4666 30.005 72.2977 29.8247 72.0981 29.6673L72.1135 29.6596L72.0905 29.7095V29.6558V29.6443H72.1058C72.3476 29.7287 72.574 29.8669 72.7697 30.0434C72.9655 30.2161 73.1343 30.4272 73.2494 30.6728L73.3185 30.8225L73.1573 30.8685C72.8235 30.9606 72.4781 31.0028 72.1327 31.0028C71.96 31.0028 71.7873 30.9913 71.6184 30.9644C71.4573 30.9414 71.2347 30.8954 71.1694 30.715V30.7188Z" fill="#59598E"/>
<path d="M75.2373 33.2173C75.9434 33.1827 76.6227 33.0829 77.2713 32.8757L77.1792 33.0561C76.9527 32.3461 76.592 31.6899 76.1929 31.0298C76.7762 31.5364 77.2175 32.2195 77.4516 32.9716L77.4939 33.1098L77.3557 33.152C76.6688 33.3592 75.9242 33.4015 75.2373 33.2211V33.2173Z" fill="#59598E"/>
<path d="M78.1619 31.5976C76.5731 31.3443 75.0649 30.619 73.879 29.5368C72.6932 28.4546 71.8259 27.0193 71.4268 25.465C73.0463 25.4267 74.566 26.3362 75.6559 27.5335C76.7458 28.7309 77.4519 30.1431 78.1657 31.5976H78.1619Z" fill="#A7A7D1" stroke="#59598E" stroke-width="0.75" stroke-miterlimit="10"/>
<path d="M78.2456 31.663C77.5126 31.3982 76.864 30.9338 76.2884 30.4081C75.7089 29.8823 75.21 29.2836 74.7188 28.6888C74.2352 28.0901 73.7517 27.4914 73.2259 26.935C72.7002 26.3823 72.1168 25.8796 71.4414 25.4958C72.1667 25.776 72.8115 26.248 73.3794 26.7776C73.9512 27.3072 74.4501 27.9097 74.9375 28.5046C75.4211 29.1032 75.9084 29.6981 76.438 30.2507C76.9715 30.7995 77.5625 31.2907 78.2417 31.663H78.2456Z" fill="#59598E"/>
<path d="M72.0254 27.2841C72.5358 27.7139 73.0731 28.1015 73.6526 28.4123C74.2244 28.7309 74.8346 28.9803 75.4601 29.1607L75.2836 29.3142C75.1761 28.3241 74.8998 27.3531 74.447 26.4436C75.0648 27.2572 75.4294 28.2588 75.5637 29.2835L75.5906 29.4869L75.3872 29.4331C74.7309 29.2604 74.1016 28.9803 73.5298 28.6234C72.9618 28.255 72.4437 27.8137 72.0254 27.2879V27.2841Z" fill="#59598E"/>
<path d="M71.7607 26.3516C71.8298 26.5128 71.9948 26.5589 72.1522 26.6011C72.3134 26.6471 72.4707 26.6932 72.6319 26.7277C72.9504 26.8083 73.2766 26.8659 73.599 26.9119L73.4416 27.0578C73.4301 26.8313 73.3802 26.5972 73.3035 26.367C73.2267 26.1406 73.1308 25.9141 73.0003 25.6954H73.0156L72.9773 25.7338L72.9965 25.6839V25.6724L73.0118 25.6839C73.2114 25.8451 73.3764 26.0523 73.4954 26.2864C73.6143 26.5167 73.7026 26.7738 73.7218 27.0462L73.7333 27.2074L73.5644 27.1921C73.219 27.1614 72.8813 27.0769 72.559 26.958C72.3978 26.8966 72.2404 26.8237 72.0908 26.7392C71.9488 26.6586 71.7531 26.5358 71.7569 26.3478L71.7607 26.3516Z" fill="#59598E"/>
<path d="M74.6851 30.1239C75.3566 30.3427 76.0282 30.4885 76.7075 30.5231L76.5578 30.6574C76.5962 29.9129 76.4926 29.1722 76.3506 28.4124C76.719 29.0916 76.8917 29.886 76.8418 30.6727L76.8342 30.8147L76.6922 30.8071C75.9745 30.761 75.2645 30.5346 74.6851 30.1239Z" fill="#59598E"/>
<path d="M79.6622 37.523C78.2346 36.7861 77.0296 35.6233 76.239 34.2226C75.4485 32.8218 75.0762 31.1908 75.1837 29.5867C76.7341 30.0587 77.8931 31.398 78.5531 32.8755C79.2132 34.353 79.4435 35.9188 79.6622 37.523Z" fill="#A7A7D1" stroke="#59598E" stroke-width="0.75" stroke-miterlimit="10"/>
<path d="M79.7198 37.6114C79.1058 37.1316 78.6338 36.4869 78.2539 35.8076C77.8663 35.1284 77.5823 34.4031 77.3021 33.6816C77.0296 32.9601 76.7572 32.2425 76.4348 31.5478C76.1086 30.8571 75.7095 30.2008 75.1914 29.6213C75.7939 30.1126 76.2583 30.765 76.6305 31.4442C77.0105 32.1273 77.2906 32.8565 77.5708 33.5741C77.8432 34.2956 78.1195 35.0132 78.4496 35.7002C78.7835 36.3871 79.1903 37.0395 79.7198 37.6037V37.6114Z" fill="#59598E"/>
<path d="M75.1836 31.5056C75.5328 32.0736 75.9243 32.6108 76.3771 33.0867C76.8223 33.5703 77.3212 33.9962 77.8584 34.3646L77.6435 34.4529C77.8546 33.4781 77.893 32.4727 77.7472 31.4634C78.081 32.4266 78.1117 33.4973 77.916 34.5066L77.8776 34.71L77.7011 34.5949C77.1293 34.2265 76.6227 33.766 76.1929 33.2441C75.7708 32.7183 75.4139 32.135 75.1836 31.5056Z" fill="#59598E"/>
<path d="M75.2262 30.5347C75.2416 30.7112 75.3836 30.8033 75.5179 30.8954C75.656 30.9914 75.7942 31.0835 75.9362 31.1679C76.2125 31.3444 76.5042 31.5018 76.7958 31.6476L76.6001 31.7397C76.6615 31.521 76.6845 31.2792 76.6845 31.0412C76.6845 30.7995 76.6615 30.5539 76.6039 30.3083H76.6193L76.5694 30.3389L76.6039 30.2967L76.6116 30.2891L76.6193 30.3006C76.7574 30.5155 76.8495 30.7649 76.8879 31.0221C76.9301 31.2792 76.9301 31.5478 76.8649 31.8126L76.8227 31.97L76.6692 31.9009C76.3507 31.7627 76.0552 31.5785 75.7865 31.3636C75.6522 31.2523 75.5256 31.1372 75.4104 31.0105C75.303 30.8916 75.1533 30.715 75.2185 30.5347H75.2262Z" fill="#59598E"/>
<path d="M76.8188 35.0323C77.3907 35.4506 77.9778 35.7999 78.6149 36.0455L78.4307 36.1261C78.7031 35.4314 78.8336 34.6946 78.9372 33.9309C79.0716 34.6908 78.9871 35.5005 78.6955 36.2335L78.6417 36.3678L78.5113 36.3141C77.8473 36.0455 77.241 35.608 76.8188 35.0362V35.0323Z" fill="#59598E"/>
<path d="M69.2314 55.0917C69.1968 55.7019 69.5576 56.2737 70.0143 56.6728C70.4709 57.0758 71.0274 57.3444 71.5455 57.6668C72.6315 58.3422 73.5756 59.2518 74.2817 60.3148C74.9188 61.2704 75.3947 62.3756 76.308 63.0702C76.8952 63.5192 77.6128 63.7533 78.3151 63.9798C78.9752 64.1908 79.6314 64.4057 80.2915 64.6168C80.8825 64.8087 81.4735 64.9967 82.076 65.1541C82.5903 65.2884 83.1084 65.3959 83.638 65.4342C85.6067 65.5762 87.6867 64.7473 89.5019 65.5225C87.0573 64.3213 85.1538 62.2797 83.0968 60.4952C80.6522 58.3691 77.9275 56.5616 75.0186 55.1339C73.944 54.6043 69.3734 52.5435 69.2275 55.0917H69.2314Z" fill="#7373A8" stroke="#59598E" stroke-width="0.75" stroke-miterlimit="10"/>
<path d="M100.838 54.6773C102.788 56.0511 104.96 57.1372 106.909 58.5072C105.386 60.7791 101.901 60.8828 100.163 62.9935C99.6676 63.596 99.3337 64.3405 98.7158 64.8164C98.2361 65.1848 97.6336 65.3498 97.0503 65.511C95.5728 65.9101 94.0799 66.3092 92.5525 66.3438C89.9544 66.3975 87.4638 65.3843 85.0614 64.3827C84.3054 64.068 83.5494 63.7533 82.7895 63.4386C81.266 62.8016 79.6964 62.1338 78.5412 60.9518C77.8159 60.2073 77.2595 59.2594 76.3615 58.7337C75.5133 58.2348 74.4465 58.1619 73.6597 57.567C73.1301 57.1641 72.7886 56.5692 72.4317 56.0089C72.0748 55.4486 71.6565 54.8845 71.0501 54.6082C70.4438 54.3319 69.6072 54.4624 69.2925 55.0457C69.35 54.447 69.5918 53.879 70.1483 53.6526C70.7047 53.4262 71.3226 53.4147 71.9251 53.3993C73.2529 53.3725 74.5769 53.3494 75.9048 53.3226C77.1482 53.2995 78.4223 53.2688 79.5774 52.8045C80.7325 52.3401 81.7534 51.3385 81.8762 50.1028C82.1678 51.2733 83.1119 51.7913 84.244 52.2135C87.8514 53.5643 91.9961 52.7085 95.3425 50.7974C98.689 48.8862 100.55 45.9466 103.106 43.0645C104.123 41.917 103.156 39.4456 103.885 38.0947C104.112 38.3749 106.798 39.0158 107.139 39.1271C105.75 41.2109 105.117 43.951 104.257 46.3035C103.191 49.2239 101.905 51.7568 100.838 54.6773Z" fill="#8080BA" stroke="#59598E" stroke-width="0.75" stroke-miterlimit="10"/>
<path d="M81.815 50.0759C78.6988 44.281 77.2443 37.9834 77.3249 31.4019C76.2696 30.4041 75.598 28.9496 76.1429 27.6064C76.4423 26.8734 77.1983 26.3822 77.4362 25.6262C77.6204 25.0429 77.4593 24.4173 77.4669 23.8071C77.4861 21.9881 78.9483 20.5298 80.4219 19.4629C81.8956 18.396 83.5611 17.4097 84.3594 15.7749C85.1921 17.64 87.2338 18.6224 89.1603 19.3017C91.0868 19.981 93.1745 20.5758 94.5292 22.107C95.1202 22.771 95.5577 23.5999 96.3099 24.0719C97.2079 24.6322 98.3553 24.5593 99.3723 24.8548C100.896 25.2961 102.07 26.5664 102.746 28.0017C103.444 29.4869 103.674 31.1409 103.855 32.7681C104.054 34.5526 104.204 36.3448 104.327 38.137C104.388 39.0004 104.415 39.8677 104.288 40.7235C103.981 42.7652 102.792 44.5727 101.441 46.1346C99.1574 48.7749 96.2791 50.9471 92.9903 52.1214C90.4689 53.0232 89.1564 53.2151 86.5852 52.8467C82.7667 52.2979 82.4943 51.35 81.8112 50.0836L81.815 50.0759Z" fill="#A7A7D1" stroke="#59598E" stroke-width="0.75" stroke-miterlimit="10"/>
<path d="M113.311 40.2362C113.085 43.2487 112.593 46.5069 110.429 48.6176C109.823 49.2048 109.105 49.6922 108.621 50.3829C108.015 51.2618 107.861 52.3862 107.267 53.2765C106.449 54.5084 104.78 55.1033 103.368 54.6619C102.592 54.4201 101.932 53.879 101.499 53.1959C101.767 52.1674 103.817 47.025 104.665 45.0524C105.091 44.0623 105.586 42.2663 106.05 41.1841C106.43 40.3014 106.031 39.8294 105.505 39.0235C105.294 38.6973 104.5 38.6051 104.216 38.3442C104.116 35.9687 103.69 32.9177 103.084 30.619C102.757 29.3717 102.305 28.0669 101.28 27.284C100.351 26.5741 99.1308 26.4321 98.014 26.0905C96.2986 25.5609 94.7904 24.5363 93.3052 23.5231C91.2137 22.0917 89.1145 20.6602 87.023 19.2288C86.0827 18.5841 85.108 17.9048 84.4632 16.9838C83.9682 17.7283 83.3618 18.3999 82.6672 18.964C81.5428 19.8658 80.1881 20.5106 79.2824 21.635C77.6936 23.6114 78.3191 27.1651 76.3581 28.7769C75.5407 28.3164 75.1838 27.3109 75.1416 26.3745C75.0994 25.4381 75.2874 24.5017 75.2567 23.5654C75.1646 20.9634 73.2688 18.3346 74.2819 15.9361C76.9491 9.61546 85.3114 11.2004 86.2055 11.0047C87.4873 10.7245 89.4522 11.3271 90.7148 11.5995C91.7241 11.8144 92.7181 12.0869 93.7005 12.4054C95.8266 12.8698 97.9334 13.4032 99.9712 14.1554C103.095 15.3067 106.085 16.9953 108.333 19.4552C110.809 22.1569 112.275 25.6761 112.962 29.2796C113.649 32.8832 113.591 36.5865 113.319 40.24L113.311 40.2362Z" fill="#8080BA"/>
<path d="M87.8674 46.5144C87.0576 46.027 86.1097 45.7661 85.1618 45.7737C84.4864 45.7776 83.8148 45.9157 83.1394 45.9004C82.4639 45.885 81.7463 45.6893 81.3203 45.1636C81.5122 44.8681 81.5774 44.538 81.8538 44.3193C82.1301 44.1005 82.5023 43.9739 82.84 44.0775C83.1279 44.1658 83.3658 44.4152 83.669 44.4075C83.8839 44.4037 84.0758 44.2655 84.2792 44.1965C84.6437 44.0775 85.0544 44.185 85.3767 44.3922C85.6991 44.5994 85.9524 44.8988 86.198 45.1943" stroke="#59598E" stroke-width="0.75" stroke-miterlimit="10"/>
<path d="M81.6543 46.7756C81.9728 47.3858 82.6214 47.7734 83.293 47.9193C83.9646 48.0651 84.6669 47.9998 85.3461 47.9039C86.0292 47.808 86.7085 47.6775 87.3993 47.6928" stroke="#59598E" stroke-width="0.75" stroke-miterlimit="10"/>
<path d="M81.9575 49.6576C83.6423 48.9515 85.6992 49.2163 87.146 50.3292" stroke="#59598E" stroke-width="0.75" stroke-miterlimit="10"/>
<path d="M86.344 39.7143C86.7508 39.2538 87.5567 39.2346 87.9904 39.6683C88.424 40.1058 88.3933 40.9079 87.9328 41.3146C87.2996 41.8673 86.3325 41.5718 85.4921 41.6293C84.8397 41.6754 84.2295 41.9517 83.5886 42.0822C82.9477 42.2127 82.1993 42.1628 81.7657 41.6715C81.2745 41.1189 81.3934 40.2708 81.5431 39.5455C81.8117 38.2292 82.0842 36.9167 82.3528 35.6004C82.5562 34.6141 82.7596 33.6163 82.7136 32.6108C82.6675 31.6054 82.3452 30.5769 81.6275 29.8669C80.5952 28.8461 78.7953 28.7348 77.644 29.6175" stroke="#59598E" stroke-width="0.75" stroke-miterlimit="10"/>
<path d="M85.707 28.9189C89.3413 27.568 93.7623 28.7193 96.2798 31.6667" stroke="#59598E" stroke-width="0.75" stroke-miterlimit="10"/>
<path d="M81.7155 32.5454C81.1859 31.9621 80.3992 31.6167 79.6086 31.6244C78.8181 31.6321 78.039 31.9851 77.5171 32.58C78.7375 33.524 80.4644 33.4511 81.7155 32.5493V32.5454Z" stroke="#59598E" stroke-width="0.75" stroke-miterlimit="10"/>
<path d="M78.1006 33.9462C79.2442 34.5986 80.8023 34.4297 81.7771 33.5432" stroke="#59598E" stroke-width="0.75" stroke-miterlimit="10"/>
<path d="M81.6732 31.5209C80.66 30.4425 78.9293 30.1163 77.5938 30.7495" stroke="#59598E" stroke-width="0.75" stroke-miterlimit="10"/>
<path d="M94.6828 32.438C93.7848 31.824 92.8024 31.3021 91.7317 31.1217C90.661 30.9414 89.4905 31.1448 88.6577 31.847C89.5135 32.6338 90.3731 33.2056 91.5283 33.3054C92.6834 33.4051 93.7081 33.0674 94.6828 32.438Z" stroke="#59598E" stroke-width="0.75" stroke-miterlimit="10"/>
<path d="M88.3198 33.0176C89.1564 33.8005 90.2732 34.284 91.4168 34.3492C92.5604 34.4183 93.7271 34.0691 94.6481 33.3898" stroke="#59598E" stroke-width="0.75" stroke-miterlimit="10"/>
<path d="M88.4663 31.0297C89.3106 30.2199 90.577 29.9628 91.7322 30.1432C92.8873 30.3274 93.9427 30.903 94.8944 31.5861" stroke="#59598E" stroke-width="0.75" stroke-miterlimit="10"/>
<path d="M86.3785 32.4727C86.1981 32.9025 86.2403 33.4206 86.4936 33.812C86.743 34.2073 87.1921 34.4644 87.6602 34.4836" stroke="#59598E" stroke-width="0.75" stroke-miterlimit="10"/>
<path d="M86.2706 13.0811C85.9521 13.8716 84.4209 15.5986 83.6073 15.8442C82.7937 16.0898 81.9264 16.1358 81.0936 16.32C78.5876 16.8842 75.9818 17.3984 74.9111 23.9992" stroke="#59598E" stroke-width="0.75" stroke-miterlimit="10"/>
<path d="M75.1987 19.3477C75.3945 17.9163 76.1428 16.5692 77.2557 15.6444C78.3686 14.7233 79.8308 14.2359 81.2737 14.3089C81.953 14.3434 82.6323 14.4969 83.3115 14.4547C83.9908 14.4125 85.1191 13.6142 85.4376 13.0117" stroke="#59598E" stroke-width="0.75" stroke-miterlimit="10"/>
<path d="M75.3301 28.6081C76.324 28.1668 76.9112 27.0999 77.1184 26.033C77.3257 24.9662 77.2259 23.8686 77.2412 22.7787C77.2566 21.6926 77.4101 20.5529 78.0395 19.6702C78.6842 18.7645 79.7434 18.2503 80.7911 17.8742C81.8388 17.4981 82.9363 17.2141 83.8727 16.6116C85.0777 15.8402 85.9374 14.5508 86.1907 13.1423" stroke="#59598E" stroke-width="0.75" stroke-miterlimit="10"/>
<path d="M86.2711 13.0811C84.0874 16.5695 87.3916 17.6248 88.401 17.9779C89.2567 18.2772 90.243 18.0086 91.0758 18.3578C92.112 18.7915 92.6492 20.0694 93.7276 20.3803C94.2687 20.5338 94.8444 20.4148 95.4047 20.3726C95.965 20.3304 96.5982 20.3995 96.9666 20.8255C97.5 21.4433 97.1969 22.4411 97.5845 23.1588C98.1026 24.1182 99.5455 24.1335 100.229 24.9816C100.896 25.8067 100.624 27.1538 101.365 27.9098C102.075 28.6351 103.383 28.4701 104.07 29.2184C104.542 29.7327 104.558 30.5155 104.481 31.2102C104.404 31.9048 104.266 32.6339 104.519 33.2825C104.945 34.3801 106.261 34.7907 107.409 35.0593" stroke="#59598E" stroke-width="0.75" stroke-miterlimit="10"/>
<path d="M87.6909 13.2458C87.8291 14.1938 89.9513 16.2469 90.8647 16.5347C91.778 16.8225 92.7528 16.7995 93.7045 16.8916C94.6563 16.9837 95.6541 17.2217 96.3257 17.9048C97.0011 18.5955 97.216 19.601 97.6727 20.453C98.1677 21.3817 99.0504 22.1761 100.102 22.2605C100.724 22.3104 101.388 22.1224 101.952 22.3872C102.819 22.7939 102.911 23.9529 103.279 24.8356C103.729 25.9063 104.761 26.7122 105.908 26.8849" stroke="#59598E" stroke-width="0.75" stroke-miterlimit="10"/>
<path d="M94.2915 14.827C95.439 14.5583 96.5787 15.3412 97.3079 16.2661C98.0371 17.191 98.5398 18.2962 99.3918 19.1098C100.332 20.0078 101.602 20.4607 102.684 21.1821C104.062 22.0993 105.137 23.4732 105.689 25.0352C105.935 25.7298 106.085 26.4628 106.434 27.1152C106.783 27.7637 107.393 28.3394 108.13 28.3778" stroke="#59598E" stroke-width="0.75" stroke-miterlimit="10"/>
<path d="M99.7798 24.4788C100.847 24.1449 101.979 24.8472 102.689 25.7183C103.395 26.5857 103.863 27.641 104.654 28.4354C105.199 28.9842 105.874 29.3795 106.48 29.8592C107.087 30.3389 107.647 30.9452 107.812 31.7013C107.942 32.2884 107.824 32.8986 107.873 33.4973C107.923 34.096 108.226 34.756 108.81 34.8942" stroke="#59598E" stroke-width="0.75" stroke-miterlimit="10"/>
<path d="M104.212 38.3442C104.553 38.8853 105.854 38.7357 106.3 39.012C106.814 39.3305 106.975 40.0366 106.825 40.62" stroke="#59598E" stroke-width="0.75" stroke-miterlimit="10"/>
<path d="M103.606 54.0747C101.886 52.0254 101.56 48.9131 102.819 46.5529C103.847 44.6187 106.472 42.7805 106.825 40.6199" stroke="#59598E" stroke-width="0.75" stroke-miterlimit="10"/>
<path d="M108.253 53.3573C107.078 53.9866 105.543 53.6681 104.53 52.8008C103.517 51.9335 102.972 50.621 102.784 49.3008C102.588 47.9231 102.799 46.3842 103.786 45.3979C103.421 47.4473 103.977 49.5349 105.278 51.1583C105.762 51.7608 106.376 52.3057 107.132 52.4631C107.888 52.6204 108.786 52.2674 109.036 51.5382" stroke="#59598E" stroke-width="0.75" stroke-miterlimit="10"/>
<path d="M98.3599 14.616C98.805 16.1625 99.8988 17.5134 101.323 18.2694C102.543 18.918 103.997 19.1559 105.041 20.0616C105.859 20.7716 106.319 21.8231 106.519 22.8861C106.718 23.9492 106.672 25.0429 106.63 26.1251" stroke="#59598E" stroke-width="0.75" stroke-miterlimit="10"/>
<path d="M102.067 16.531C102.198 16.9455 102.562 17.2448 102.954 17.4367C103.345 17.6286 103.771 17.7245 104.178 17.878C105.233 18.2771 106.135 19.06 106.68 20.0463C107.225 21.0326 107.402 22.2146 107.175 23.3198" stroke="#59598E" stroke-width="0.75" stroke-miterlimit="10"/>
<path d="M103.779 33.9309C103.756 35.3585 105.175 36.7861 106.231 37.7455C107.286 38.705 108.426 39.8563 108.391 41.2839C108.368 42.297 107.739 43.195 107.064 43.951C106.392 44.7109 105.632 45.4324 105.241 46.3688C104.757 47.5277 104.941 48.9323 105.697 49.9301C106.077 50.429 106.63 50.8435 107.259 50.878C107.904 50.9126 108.533 50.5173 108.844 49.9531C109.155 49.389 109.159 48.679 108.917 48.0804C108.718 47.5891 108.345 47.1478 107.85 46.9598C107.355 46.7717 106.737 46.8715 106.388 47.2745C106.039 47.6736 106.047 48.3644 106.461 48.6982C106.872 49.0321 107.612 48.8402 107.751 48.3298" stroke="#59598E" stroke-width="0.75" stroke-miterlimit="10"/>
<path d="M75.9009 29.0916C77.2939 28.3855 77.6048 27.0423 77.9579 25.5226C78.3109 24.0029 78.4184 22.5024 79.4354 21.3165C80.1146 20.526 81.5115 19.5972 82.3942 19.0408C83.273 18.4843 84.1442 17.7935 84.5088 16.8149C86.5542 19.674 94.4176 24.7896 100.88 27.0423" stroke="#59598E" stroke-width="0.75" stroke-miterlimit="10"/>
<path d="M102.239 28.3472C103.467 31.6169 104.215 35.0362 104.334 38.5285" stroke="#59598E" stroke-width="0.75" stroke-miterlimit="10"/>
<path d="M76.3239 16.8917C77.8244 14.8232 80.4263 13.929 82.8632 13.15C81.5968 12.8852 80.3189 12.6204 79.0256 12.6549C77.7323 12.6856 76.4083 13.0425 75.4297 13.8906C74.1594 14.9959 73.6567 16.7919 73.7718 18.4728C73.8754 19.9618 74.4166 21.3587 75.0191 22.7057C74.9039 20.7025 75.092 18.5841 76.32 16.8917H76.3239Z" fill="#8080BA" stroke="#59598E" stroke-width="0.75" stroke-miterlimit="10"/>
<path d="M76.3239 16.8917C77.8244 14.8232 80.4263 13.929 82.8632 13.15C81.5968 12.8852 80.3189 12.6204 79.0256 12.6549C77.7323 12.6856 76.4083 13.0425 75.4297 13.8906C74.1594 14.9959 73.6567 16.7919 73.7718 18.4728C73.8754 19.9618 74.4166 21.3587 75.0191 22.7057C74.9039 20.7025 75.092 18.5841 76.32 16.8917H76.3239Z" fill="#8080BA" stroke="#59598E" stroke-width="0.75" stroke-miterlimit="10"/>
<path d="M74.1628 15.4527C73.7944 13.8677 74.4123 12.1561 75.5252 10.9703C76.6419 9.78446 78.1962 9.08601 79.7888 8.75213C81.3815 8.41825 83.024 8.42593 84.6473 8.47198C89.5672 8.61014 94.0496 9.20881 98.1827 11.8798C99.714 12.8699 100.854 14.1095 102.542 14.8041C103.824 15.3299 106.111 15.4949 107.393 16.0168C108.675 16.5426 109.903 17.5788 110.037 18.9565C110.037 18.9565 107.017 19.321 103.49 18.258C99.9634 17.1988 91.9005 14.5432 88.1971 14.2054C84.4938 13.8716 80.3875 13.5569 77.3097 14.6736L74.2319 15.7904L74.1551 15.4527H74.1628Z" fill="#A7A7D1" stroke="#59598E" stroke-width="0.75" stroke-miterlimit="10"/>
<path d="M105.424 34.0114C106.94 34.5372 108.295 35.5119 109.277 36.7822C110.256 38.0525 110.855 39.6144 110.977 41.2109C109.381 40.9652 108.045 39.8063 107.182 38.4401C106.318 37.0739 105.869 35.5618 105.424 34.0076V34.0114Z" fill="#A7A7D1" stroke="#59598E" stroke-width="0.75" stroke-miterlimit="10"/>
<path d="M105.355 33.9348C106.027 34.3224 106.587 34.8904 107.059 35.5083C107.539 36.1261 107.923 36.8015 108.303 37.4731C108.675 38.1486 109.043 38.8163 109.466 39.4572C109.888 40.0943 110.375 40.6853 110.966 41.1842C110.302 40.785 109.75 40.2056 109.285 39.5877C108.813 38.966 108.429 38.2867 108.053 37.6151C107.681 36.9397 107.309 36.272 106.883 35.6387C106.457 35.0094 105.958 34.4222 105.355 33.9387V33.9348Z" fill="#59598E"/>
<path d="M108.587 36.0685C107.965 35.7385 107.332 35.4775 106.668 35.324L106.841 35.2166C106.672 35.9381 106.645 36.6864 106.653 37.4578C106.411 36.7248 106.38 35.915 106.56 35.1513L106.595 35.0132L106.733 35.0477C107.428 35.2204 108.088 35.562 108.587 36.0685Z" fill="#59598E"/>
<path d="M110.364 16.343C110.602 17.7937 110.41 19.3172 109.811 20.6604C109.216 22.0074 108.219 23.1702 106.983 23.9685C106.484 22.5715 106.833 20.9904 107.559 19.6971C108.284 18.4038 109.309 17.383 110.364 16.343Z" fill="#A7A7D1" stroke="#59598E" stroke-width="0.75" stroke-miterlimit="10"/>
<path d="M110.394 16.2546C110.382 16.9684 110.168 17.6707 109.88 18.3193C109.592 18.9755 109.216 19.5857 108.84 20.1844C108.46 20.7792 108.08 21.3702 107.746 21.9843C107.416 22.5983 107.147 23.2507 107.001 23.9453C107.028 23.2315 107.251 22.5369 107.546 21.8883C107.842 21.2359 108.218 20.6296 108.594 20.0309C108.974 19.4361 109.35 18.8451 109.676 18.2272C109.999 17.6093 110.26 16.9531 110.39 16.2546H110.394Z" fill="#59598E"/>
<path d="M108.387 22.9244C108.61 22.3526 108.786 21.777 108.886 21.1821C108.997 20.5911 109.036 19.9925 109.013 19.3976L109.212 19.5166C108.383 19.8927 107.623 20.4108 106.956 21.0632C107.477 20.2841 108.245 19.6739 109.093 19.2633L109.277 19.175L109.293 19.3861C109.335 20.0078 109.27 20.6334 109.124 21.2359C108.966 21.8345 108.729 22.414 108.387 22.9244Z" fill="#59598E"/>
<path d="M107.654 23.4232C107.773 23.312 107.762 23.1584 107.75 23.0088C107.743 22.8553 107.735 22.7056 107.72 22.5559C107.697 22.2566 107.651 21.9573 107.601 21.6656L107.789 21.7692C107.597 21.846 107.409 21.9534 107.228 22.0839C107.052 22.2144 106.883 22.364 106.73 22.5367L106.722 22.5214L106.768 22.5444H106.718H106.707V22.5291C106.791 22.3065 106.925 22.1031 107.09 21.9304C107.255 21.7577 107.455 21.608 107.685 21.5121L107.835 21.4507L107.873 21.6157C107.946 21.9266 107.969 22.2451 107.958 22.5598C107.95 22.7171 107.931 22.8745 107.9 23.0318C107.869 23.1776 107.816 23.3849 107.651 23.4348L107.654 23.4232Z" fill="#59598E"/>
<path d="M107.398 19.8965C109.04 21.4699 110.095 23.477 110.391 25.5954C110.686 27.7138 110.226 29.932 109.078 31.9007C107.094 30.6036 106.219 28.3969 106.158 26.2401C106.097 24.0834 106.73 22.0149 107.394 19.8965H107.398Z" fill="#A7A7D1" stroke="#59598E" stroke-width="0.75" stroke-miterlimit="10"/>
<path d="M107.367 19.7622C107.927 20.6334 108.215 21.6657 108.341 22.698C108.472 23.7342 108.437 24.7742 108.407 25.8065C108.357 26.835 108.318 27.8635 108.388 28.8805C108.453 29.8975 108.656 30.9145 109.09 31.8547C108.549 30.9682 108.28 29.932 108.169 28.8997C108.054 27.8635 108.092 26.8235 108.123 25.795C108.173 24.7665 108.203 23.7419 108.123 22.721C108.042 21.7041 107.823 20.6909 107.367 19.7622Z" fill="#59598E"/>
<path d="M110.256 29.4944C110.134 28.6041 109.9 27.7368 109.543 26.927C109.201 26.1096 108.721 25.3574 108.173 24.6666H108.388C107.946 25.2077 107.57 25.8026 107.236 26.4204C106.91 27.0421 106.649 27.6984 106.465 28.3853C106.545 27.6792 106.757 26.9846 107.052 26.3322C107.34 25.6721 107.735 25.0657 108.169 24.4939L108.272 24.3596L108.384 24.4939C108.971 25.1886 109.428 25.9945 109.761 26.8387C110.08 27.6907 110.264 28.5926 110.256 29.4944Z" fill="#59598E"/>
<path d="M109.6 30.692C109.711 30.4694 109.562 30.2622 109.427 30.0856C109.293 29.8976 109.151 29.7172 109.001 29.5407C108.71 29.1876 108.387 28.8614 108.05 28.5544L108.245 28.5429C108.026 28.7847 107.85 29.0725 107.708 29.3757C107.574 29.6827 107.462 30.0089 107.42 30.3543L107.405 30.3427L107.489 30.3312L107.409 30.3658L107.397 30.3734V30.3543C107.351 30.005 107.397 29.6405 107.508 29.2989C107.62 28.9573 107.789 28.6311 108.034 28.3548L108.126 28.2512L108.234 28.3433C108.594 28.6503 108.917 29.0072 109.189 29.3948C109.324 29.5906 109.446 29.794 109.554 30.005C109.608 30.1086 109.657 30.2238 109.681 30.3466C109.707 30.4694 109.681 30.6075 109.596 30.692H109.6Z" fill="#59598E"/>
<path d="M110.033 24.3137C109.769 23.9031 109.473 23.5155 109.151 23.1624C108.821 22.8132 108.472 22.487 108.092 22.1953L108.276 22.1877C107.877 22.5522 107.508 22.9514 107.174 23.3812C106.837 23.8072 106.537 24.2677 106.25 24.7397C106.422 24.2101 106.679 23.7112 106.986 23.2469C107.297 22.7825 107.666 22.3527 108.088 21.9766L108.176 21.896L108.268 21.9689C108.656 22.2759 109.016 22.629 109.312 23.0243C109.615 23.4157 109.865 23.8494 110.033 24.3099V24.3137Z" fill="#59598E"/>
</g>
<g opacity="0.27">
<mask id="mask2_2_27796" style="mask-type:luminance" maskUnits="userSpaceOnUse" x="47" y="1" width="73" height="73">
<path d="M83.9335 73.1327C103.852 73.1327 120 56.9852 120 37.0663C120 17.1475 103.852 1 83.9335 1C64.0146 1 47.8672 17.1475 47.8672 37.0663C47.8672 56.9852 64.0146 73.1327 83.9335 73.1327Z" fill="white"/>
</mask>
<g mask="url(#mask2_2_27796)">
<path d="M90.8731 -3.23063L83.9053 -6.68042L44.6039 72.7003L51.5718 76.1501L90.8731 -3.23063Z" fill="white"/>
<path d="M112.373 2.30347L102.124 -2.77075L62.8227 76.61L73.0715 81.6842L112.373 2.30347Z" fill="white"/>
<path d="M78.3568 -16.6548L68.1079 -21.729L28.8065 57.6517L39.0554 62.7259L78.3568 -16.6548Z" fill="white"/>
<path d="M131.529 6.46761L124.561 3.01782L85.2597 82.3985L92.2275 85.8483L131.529 6.46761Z" fill="white"/>
</g>
</g>
<path d="M36.0663 73.1327C55.9852 73.1327 72.1327 56.9852 72.1327 37.0663C72.1327 17.1475 55.9852 1 36.0663 1C16.1475 1 0 17.1475 0 37.0663C0 56.9852 16.1475 73.1327 36.0663 73.1327Z" fill="#964529"/>
<path d="M37.6015 73.1327C57.5204 73.1327 73.6678 56.9852 73.6678 37.0663C73.6678 17.1475 57.5204 1 37.6015 1C17.6826 1 1.53516 17.1475 1.53516 37.0663C1.53516 56.9852 17.6826 73.1327 37.6015 73.1327Z" fill="#FF8500" stroke="#DB6D00" stroke-width="0.75" stroke-miterlimit="10"/>
<path d="M37.6015 70.7265C56.1915 70.7265 71.2617 55.6563 71.2617 37.0664C71.2617 18.4764 56.1915 3.40625 37.6015 3.40625C19.0116 3.40625 3.94141 18.4764 3.94141 37.0664C3.94141 55.6563 19.0116 70.7265 37.6015 70.7265Z" fill="#FFB600"/>
<mask id="mask3_2_27796" style="mask-type:luminance" maskUnits="userSpaceOnUse" x="3" y="3" width="69" height="68">
<path d="M37.6015 70.7265C56.1915 70.7265 71.2617 55.6563 71.2617 37.0664C71.2617 18.4764 56.1915 3.40625 37.6015 3.40625C19.0116 3.40625 3.94141 18.4764 3.94141 37.0664C3.94141 55.6563 19.0116 70.7265 37.6015 70.7265Z" fill="white"/>
</mask>
<g mask="url(#mask3_2_27796)">
<path d="M0.649414 55.7135L33.3309 -9.43848" stroke="#E28600" stroke-width="0.75" stroke-miterlimit="10"/>
<path d="M1.99609 56.5848L34.6815 -8.56714" stroke="#E28600" stroke-width="0.75" stroke-miterlimit="10"/>
<path d="M3.33887 57.6207L36.0204 -7.53125" stroke="#E28600" stroke-width="0.75" stroke-miterlimit="10"/>
<path d="M4.68652 58.4882L37.3719 -6.65991" stroke="#E28600" stroke-width="0.75" stroke-miterlimit="10"/>
<path d="M6.0376 59.2748L38.7191 -5.87329" stroke="#E28600" stroke-width="0.75" stroke-miterlimit="10"/>
<path d="M7.38428 60.1461L40.0696 -5.00586" stroke="#E28600" stroke-width="0.75" stroke-miterlimit="10"/>
<path d="M8.73535 60.9327L41.4169 -4.21924" stroke="#E28600" stroke-width="0.75" stroke-miterlimit="10"/>
<path d="M10.0791 61.9691L42.7606 -3.18286" stroke="#E28600" stroke-width="0.75" stroke-miterlimit="10"/>
<path d="M11.4219 62.9208L44.1072 -2.2312" stroke="#E28600" stroke-width="0.75" stroke-miterlimit="10"/>
<path d="M12.7759 63.5423L45.4612 -1.60962" stroke="#E28600" stroke-width="0.75" stroke-miterlimit="10"/>
<path d="M14.1196 64.5749L46.805 -0.573242" stroke="#E28600" stroke-width="0.75" stroke-miterlimit="10"/>
<path d="M15.4702 65.3615L48.1517 0.213379" stroke="#E28600" stroke-width="0.75" stroke-miterlimit="10"/>
<path d="M16.8252 66.0678L49.5067 0.915771" stroke="#E28600" stroke-width="0.75" stroke-miterlimit="10"/>
<path d="M18.1719 66.8544L50.8572 1.70239" stroke="#E28600" stroke-width="0.75" stroke-miterlimit="10"/>
<path d="M19.519 67.7216L52.2044 2.57349" stroke="#E28600" stroke-width="0.75" stroke-miterlimit="10"/>
<path d="M53.4746 6.74902L57.5003 12.6629" stroke="#E28600" stroke-width="0.75" stroke-miterlimit="10"/>
<path d="M52.1011 7.26318L57.1591 14.2055" stroke="#E28600" stroke-width="0.75" stroke-miterlimit="10"/>
<path d="M51.2451 8.72144L56.3032 15.6638" stroke="#E28600" stroke-width="0.75" stroke-miterlimit="10"/>
<path d="M53.9927 18.5113L56.4066 16.7114" stroke="#E28600" stroke-width="0.75" stroke-miterlimit="10"/>
<path d="M52.3154 17.6518L55.7501 14.9961" stroke="#E28600" stroke-width="0.75" stroke-miterlimit="10"/>
<path d="M51.5791 16.6309L55.0176 13.9714" stroke="#E28600" stroke-width="0.75" stroke-miterlimit="10"/>
<path d="M50.5156 15.4027L53.9542 12.7471" stroke="#E28600" stroke-width="0.75" stroke-miterlimit="10"/>
<path d="M48.7158 14.9959L53.2174 11.5574" stroke="#E28600" stroke-width="0.75" stroke-miterlimit="10"/>
<path d="M46.4673 14.7082L52.2775 10.291" stroke="#E28600" stroke-width="0.75" stroke-miterlimit="10"/>
<path d="M45.6919 13.5644L51.4983 9.14722" stroke="#E28600" stroke-width="0.75" stroke-miterlimit="10"/>
<path d="M55.6694 19.697L64.0125 13.8484" stroke="#E28600" stroke-width="0.75" stroke-miterlimit="10"/>
<path d="M56.6943 20.76L65.0374 14.9114" stroke="#E28600" stroke-width="0.75" stroke-miterlimit="10"/>
<path d="M57.6968 21.7619L66.0398 15.9133" stroke="#E28600" stroke-width="0.75" stroke-miterlimit="10"/>
<path d="M60.3135 21.9267L68.6566 16.0781" stroke="#E28600" stroke-width="0.75" stroke-miterlimit="10"/>
<path d="M61.334 23.3161L69.6771 17.4675" stroke="#E28600" stroke-width="0.75" stroke-miterlimit="10"/>
<path d="M58.2485 21.4971L61.7638 26.6088" stroke="#E28600" stroke-width="0.75" stroke-miterlimit="10"/>
<path d="M59.312 20.7217L62.8273 25.8334" stroke="#E28600" stroke-width="0.75" stroke-miterlimit="10"/>
<path d="M20.54 67.7291L29.9461 61.6272" stroke="#E28600" stroke-width="0.75" stroke-miterlimit="10"/>
<path d="M28.8828 64.8126L32.8663 62.1953" stroke="#E28600" stroke-width="0.75" stroke-miterlimit="10"/>
<path d="M30.0264 66.3747L34.0137 63.7612" stroke="#E28600" stroke-width="0.75" stroke-miterlimit="10"/>
<path d="M19.4961 67.054L28.9022 60.9482" stroke="#E28600" stroke-width="0.75" stroke-miterlimit="10"/>
<path d="M23.5869 65.7952L27.8621 71.9469" stroke="#E28600" stroke-width="0.75" stroke-miterlimit="10"/>
<path d="M25.0459 64.855L30.3112 72.4152" stroke="#E28600" stroke-width="0.75" stroke-miterlimit="10"/>
<path d="M26.5034 63.9185L31.7687 71.4748" stroke="#E28600" stroke-width="0.75" stroke-miterlimit="10"/>
<path d="M27.7046 63.2393L32.9699 70.7994" stroke="#E28600" stroke-width="0.75" stroke-miterlimit="10"/>
<path d="M39.1714 65.5342L56.1684 68.1898" stroke="#E28600" stroke-width="0.75" stroke-miterlimit="10"/>
<path d="M39.0186 67.0962L56.0117 69.7557" stroke="#E28600" stroke-width="0.75" stroke-miterlimit="10"/>
<path d="M38.8071 68.6619L55.8041 71.3214" stroke="#E28600" stroke-width="0.75" stroke-miterlimit="10"/>
<path d="M38.4961 70.1738L55.4893 72.8295" stroke="#E28600" stroke-width="0.75" stroke-miterlimit="10"/>
<path d="M42.353 61.6235L46.5246 66.7315" stroke="#E28600" stroke-width="0.75" stroke-miterlimit="10"/>
<path d="M44.437 61.9883L48.6085 67.0962" stroke="#E28600" stroke-width="0.75" stroke-miterlimit="10"/>
<path d="M46.21 62.1953L50.3815 67.3071" stroke="#E28600" stroke-width="0.75" stroke-miterlimit="10"/>
<path d="M47.8252 64.072L53.3015 60.6833" stroke="#E28600" stroke-width="0.75" stroke-miterlimit="10"/>
<path d="M48.9233 65.4304L54.3958 62.0417" stroke="#E28600" stroke-width="0.75" stroke-miterlimit="10"/>
<path d="M58.7744 56.4121L68.3148 57.3485" stroke="#E28600" stroke-width="0.75" stroke-miterlimit="10"/>
<path d="M58.3062 58.3921L67.8427 59.3285" stroke="#E28600" stroke-width="0.75" stroke-miterlimit="10"/>
<path d="M58.0449 60.2151L67.5853 61.1553" stroke="#E28600" stroke-width="0.75" stroke-miterlimit="10"/>
<path d="M57.7305 61.9343L67.2709 62.8746" stroke="#E28600" stroke-width="0.75" stroke-miterlimit="10"/>
<path d="M61.8481 32.2729L72.3787 46.8714" stroke="#E28600" stroke-width="0.75" stroke-miterlimit="10"/>
<path d="M61.4341 34.1499L71.9646 48.7484" stroke="#E28600" stroke-width="0.75" stroke-miterlimit="10"/>
<path d="M60.1831 35.1936L70.7136 49.7882" stroke="#E28600" stroke-width="0.75" stroke-miterlimit="10"/>
<path d="M64.1973 35.5046L74.6741 36.9668" stroke="#E28600" stroke-width="0.75" stroke-miterlimit="10"/>
<path d="M65.4985 37.1738L75.9792 38.6321" stroke="#E28600" stroke-width="0.75" stroke-miterlimit="10"/>
<path d="M66.9067 39.1541L77.3836 40.6162" stroke="#E28600" stroke-width="0.75" stroke-miterlimit="10"/>
<path d="M68.3149 41.188L78.7918 42.6463" stroke="#E28600" stroke-width="0.75" stroke-miterlimit="10"/>
<path d="M61.7983 44.5767L65.1333 42.2817" stroke="#E28600" stroke-width="0.75" stroke-miterlimit="10"/>
<path d="M67.6354 45.4631L59.5034 44.262" stroke="#E28600" stroke-width="0.75" stroke-miterlimit="10"/>
<path d="M68.9409 47.4434L59.2969 45.9314" stroke="#E28600" stroke-width="0.75" stroke-miterlimit="10"/>
<path d="M70.088 49.1628L59.7109 47.6008" stroke="#E28600" stroke-width="0.75" stroke-miterlimit="10"/>
<path d="M58.7974 52.2598L64.8724 48.3569" stroke="#E28600" stroke-width="0.75" stroke-miterlimit="10"/>
<path d="M57.2778 54.7772L66.8259 48.7021" stroke="#E28600" stroke-width="0.75" stroke-miterlimit="10"/>
<path d="M61.1577 27.1308L65.4367 24.0107" stroke="#E28600" stroke-width="0.75" stroke-miterlimit="10"/>
<path d="M61.2422 28.6503L65.525 25.5303" stroke="#E28600" stroke-width="0.75" stroke-miterlimit="10"/>
<path d="M60.939 30.4271L65.2218 27.3071" stroke="#E28600" stroke-width="0.75" stroke-miterlimit="10"/>
<path d="M60.5938 32.5111L64.8727 29.3911" stroke="#E28600" stroke-width="0.75" stroke-miterlimit="10"/>
<path d="M60.1143 34.3339L64.3971 31.2139" stroke="#E28600" stroke-width="0.75" stroke-miterlimit="10"/>
</g>
<path d="M37.6013 62.8977C51.8675 62.8977 63.4326 51.3326 63.4326 37.0664C63.4326 22.8002 51.8675 11.2351 37.6013 11.2351C23.3351 11.2351 11.77 22.8002 11.77 37.0664C11.77 51.3326 23.3351 62.8977 37.6013 62.8977Z" fill="#A7A7D1" stroke="#7373A8" stroke-width="0.75" stroke-miterlimit="10"/>
<path d="M37.6012 60.5028C50.5448 60.5028 61.0377 50.0099 61.0377 37.0662C61.0377 24.1226 50.5448 13.6296 37.6012 13.6296C24.6575 13.6296 14.1646 24.1226 14.1646 37.0662C14.1646 50.0099 24.6575 60.5028 37.6012 60.5028Z" fill="#E9E9FF"/>
<mask id="mask4_2_27796" style="mask-type:luminance" maskUnits="userSpaceOnUse" x="14" y="13" width="48" height="48">
<path d="M37.6026 60.5031C50.5463 60.5031 61.0392 50.0102 61.0392 37.0665C61.0392 24.1228 50.5463 13.6299 37.6026 13.6299C24.6589 13.6299 14.166 24.1228 14.166 37.0665C14.166 50.0102 24.6589 60.5031 37.6026 60.5031Z" fill="white"/>
</mask>
<g mask="url(#mask4_2_27796)">
<path d="M0.852539 55.5102L33.5341 -9.63794" stroke="#A7A7D1" stroke-width="0.75" stroke-miterlimit="10"/>
<path d="M2.19922 56.3812L34.8807 -8.77075" stroke="#A7A7D1" stroke-width="0.75" stroke-miterlimit="10"/>
<path d="M3.54248 57.4176L36.224 -7.73438" stroke="#A7A7D1" stroke-width="0.75" stroke-miterlimit="10"/>
<path d="M4.88916 58.2846L37.5707 -6.86353" stroke="#A7A7D1" stroke-width="0.75" stroke-miterlimit="10"/>
<path d="M6.24072 59.0715L38.9222 -6.07666" stroke="#A7A7D1" stroke-width="0.75" stroke-miterlimit="10"/>
<path d="M7.58789 59.9425L40.2694 -5.20947" stroke="#A7A7D1" stroke-width="0.75" stroke-miterlimit="10"/>
<path d="M8.93848 60.7294L41.62 -4.42261" stroke="#A7A7D1" stroke-width="0.75" stroke-miterlimit="10"/>
<path d="M10.2773 61.7655L42.9627 -3.38647" stroke="#A7A7D1" stroke-width="0.75" stroke-miterlimit="10"/>
<path d="M11.625 62.7172L44.3065 -2.43091" stroke="#A7A7D1" stroke-width="0.75" stroke-miterlimit="10"/>
<path d="M12.979 63.339L45.6644 -1.81299" stroke="#A7A7D1" stroke-width="0.75" stroke-miterlimit="10"/>
<path d="M14.3228 64.3751L47.0043 -0.776855" stroke="#A7A7D1" stroke-width="0.75" stroke-miterlimit="10"/>
<path d="M15.6738 65.1617L48.3554 0.00976562" stroke="#A7A7D1" stroke-width="0.75" stroke-miterlimit="10"/>
<path d="M17.0244 65.8641L49.7098 0.712158" stroke="#A7A7D1" stroke-width="0.75" stroke-miterlimit="10"/>
<path d="M18.375 66.6508L51.0565 1.49878" stroke="#A7A7D1" stroke-width="0.75" stroke-miterlimit="10"/>
<path d="M19.7222 67.5221L52.4075 2.37012" stroke="#A7A7D1" stroke-width="0.75" stroke-miterlimit="10"/>
</g>
<path d="M52.1229 23.8801L51.1903 23.3736L50.2424 23.8533L50.4343 22.8094L49.6821 22.0573L50.7375 21.9153L51.221 20.9712L51.6816 21.9306L52.7292 22.0956L51.9579 22.8286L52.1229 23.8801Z" fill="#A7A7D1"/>
<path d="M53.8192 27.2688L54.982 27.549L55.8762 26.7507L55.9683 27.9442L57.0045 28.5429L55.8992 29.0034L55.646 30.1739L54.8708 29.2606L53.6772 29.3872L54.3028 28.3625L53.8192 27.2688Z" fill="#A7A7D1"/>
<path d="M50.7378 30.4272L50.2159 29.8285L49.4253 29.9206L49.8321 29.2375L49.502 28.516L50.2773 28.6925L50.8606 28.1553L50.9335 28.9458L51.6243 29.3334L50.8951 29.6481L50.7378 30.4272Z" fill="#A7A7D1"/>
<path d="M47.8905 26.9616L46.9541 26.4512L46.0062 26.9347L46.2019 25.8871L45.4497 25.1349L46.5051 24.9967L46.9886 24.0488L47.4453 25.0082L48.4968 25.1771L47.7254 25.9101L47.8905 26.9616Z" fill="#A7A7D1"/>
<path d="M49.7359 34.6603L49.2754 35.6888L49.8587 36.652L48.7381 36.5292L48.0013 37.3812L47.7749 36.2798L46.7349 35.8423L47.7135 35.2858L47.8056 34.1614L48.6422 34.9174L49.7359 34.6603Z" fill="#A7A7D1"/>
<path d="M30.2139 35.9419C32.6585 35.4008 35.2489 35.4852 37.7549 35.7807C41.5618 36.2297 45.3995 37.1853 48.5809 39.319C51.7623 41.4528 54.2184 44.9259 54.4026 48.752C56.3752 46.9099 57.1389 44.4423 56.7551 41.7713C56.3714 39.1003 54.9783 36.6595 53.2398 34.5949C50.5688 31.425 47.019 29.0034 43.0931 27.6756C40.0958 26.6624 36.8837 26.2902 33.733 26.5703L30.2177 35.9419H30.2139Z" fill="#B7B7E5" stroke="#59598E" stroke-width="0.75" stroke-miterlimit="10"/>
<path d="M45.515 57.3023C45.538 55.8248 45.2003 54.3665 44.7935 52.9465C44.5402 53.8906 43.2776 54.14 42.3336 53.8791C41.3934 53.622 40.5222 53.0463 39.5474 53.0194C38.1659 52.9811 37.0223 54.0249 35.7251 54.5008C34.0749 55.1071 32.1024 54.7426 30.8091 53.5529C31.4653 55.1071 32.3326 56.5731 33.3803 57.8971C33.8754 58.5227 35.0881 58.7376 35.8287 58.4459C36.5694 58.1542 37.1834 57.6208 37.8128 57.1373C38.4422 56.6537 39.1406 56.197 39.9312 56.1088C41.8424 55.8939 43.7036 57.9432 45.515 57.2984V57.3023Z" fill="#B7B7E5" stroke="#59598E" stroke-width="0.75" stroke-miterlimit="10"/>
<path d="M36.1931 54.1707C33.0961 53.929 30.2256 52.8851 27.7925 51.2388" stroke="#59598E" stroke-width="0.75" stroke-miterlimit="10"/>
<path d="M53.2012 44.5576C50.9408 49.0784 46.777 52.4824 41.7573 53.7181" stroke="#59598E" stroke-width="0.75" stroke-miterlimit="10"/>
<path d="M43.3276 20.2537C50.1472 22.633 55.0095 29.4218 55.0095 37.0511" stroke="#59598E" stroke-width="0.75" stroke-miterlimit="10"/>
<path d="M48.5117 50.4176C50.6032 50.7783 52.8521 50.0952 54.3872 48.6331" stroke="#59598E" stroke-width="0.75" stroke-miterlimit="10"/>
<path d="M30.2637 48.5219H29.1393C28.9282 48.5219 28.7747 48.4413 28.6826 48.2801L27.5352 46.4304C27.4891 46.3574 27.4354 46.3037 27.3778 46.273C27.3203 46.2385 27.2358 46.2231 27.1284 46.2231H26.7062V48.518H25.459V42.4929H27.351C27.7731 42.4929 28.13 42.5351 28.4293 42.6234C28.7287 42.7117 28.9743 42.8306 29.1662 42.988C29.358 43.1415 29.4962 43.3295 29.5845 43.5444C29.6727 43.7593 29.7188 43.9934 29.7188 44.2544C29.7188 44.454 29.6919 44.642 29.6344 44.8224C29.5768 45.0027 29.4962 45.1639 29.3888 45.3098C29.2813 45.4556 29.147 45.5861 28.9896 45.7012C28.8323 45.8163 28.6519 45.9046 28.4485 45.9737C28.5291 46.0197 28.602 46.0696 28.6711 46.1349C28.7402 46.1963 28.8016 46.273 28.8592 46.3574L30.2637 48.5257V48.5219ZM27.3433 45.3481C27.5467 45.3481 27.7194 45.3213 27.8652 45.2714C28.011 45.2215 28.1338 45.1486 28.2259 45.0603C28.3219 44.972 28.391 44.8646 28.4332 44.7418C28.4754 44.619 28.4984 44.4885 28.4984 44.3427C28.4984 44.0587 28.4025 43.8361 28.2144 43.6788C28.0264 43.5214 27.7347 43.4408 27.3471 43.4408H26.6986V45.3481H27.3394H27.3433Z" fill="#59598E"/>
<path d="M33.5181 43.4713V45.0218H35.529V45.9658H33.5181V47.5469H36.1008V48.5217H32.2632V42.4966H36.1008V43.4713H33.5181Z" fill="#59598E"/>
<path d="M43.7183 48.5217H42.7512C42.6438 48.5217 42.5555 48.4948 42.4864 48.445C42.4174 48.3951 42.3675 48.3298 42.3368 48.2492L41.93 47.0979H39.5276L39.1208 48.2492C39.0939 48.3183 39.0441 48.3797 38.975 48.4373C38.9059 48.4948 38.8176 48.5217 38.714 48.5217H37.7393L40.0956 42.4966H41.3697L43.7222 48.5217H43.7183ZM41.6268 46.2345L40.9744 44.3885C40.936 44.2926 40.8938 44.1775 40.8516 44.047C40.8094 43.9165 40.7672 43.7745 40.7288 43.6249C40.6904 43.7784 40.6482 43.9242 40.606 44.0547C40.5638 44.1852 40.5216 44.3003 40.4832 44.3962L39.8346 46.2306H41.623L41.6268 46.2345Z" fill="#59598E"/>
<path d="M49.2642 47.5086V48.5217H45.6875V42.4966H46.9347V47.5086H49.2642Z" fill="#59598E"/>
<path d="M33.8634 51.6534C34.0476 51.473 34.2318 51.2888 34.3892 51.1277C34.7538 50.7516 34.9265 50.4753 34.9265 50.1567C34.9265 49.8574 34.7614 49.677 34.5082 49.677C34.4084 49.677 34.2779 49.6962 34.1359 49.7614L34.3815 49.6118L34.3048 49.9572C34.2587 50.1759 34.1704 50.2412 34.0591 50.2412C33.9632 50.2412 33.8865 50.1874 33.8442 50.103C33.8711 49.7 34.2357 49.5005 34.6578 49.5005C35.1682 49.5005 35.3908 49.773 35.3908 50.1414C35.3908 50.4868 35.1721 50.7631 34.5734 51.2543C34.4468 51.3579 34.2856 51.4961 34.1206 51.6381L34.0707 51.5652H35.4676V51.9489H33.8596V51.6611L33.8634 51.6534Z" fill="#59598E"/>
<path d="M37.4673 50.7476C37.4673 51.6456 37.0643 51.9948 36.6345 51.9948C36.2047 51.9948 35.8018 51.6456 35.8018 50.7476C35.8018 49.8496 36.2009 49.4927 36.6345 49.4927C37.0682 49.4927 37.4673 49.8457 37.4673 50.7476ZM36.6345 51.8145C36.8379 51.8145 37.0145 51.5996 37.0145 50.7514C37.0145 49.9033 36.8379 49.6807 36.6345 49.6807C36.4311 49.6807 36.2546 49.8918 36.2546 50.7514C36.2546 51.6111 36.4273 51.8145 36.6345 51.8145Z" fill="#59598E"/>
<path d="M39.3634 51.7877V51.9412H37.9204V51.7877L38.4308 51.6879H38.8683L39.3634 51.7877ZM38.8376 49.512L38.8913 49.5503L38.876 50.0838V51.1545C38.876 51.4116 38.876 51.6802 38.8875 51.9412H38.4078C38.4155 51.6802 38.4193 51.4154 38.4193 51.1545V49.8612L37.9856 49.8996V49.7154L38.8376 49.512Z" fill="#59598E"/>
<path d="M40.4181 50.5902C40.7328 50.5902 40.9208 50.4291 40.9208 50.1067C40.9208 49.8266 40.7673 49.6769 40.4987 49.6769C40.4258 49.6769 40.3221 49.6922 40.1993 49.7306L40.3951 49.6078L40.3337 49.9033C40.2953 50.0798 40.2185 50.1528 40.0842 50.1528C39.9959 50.1528 39.923 50.1144 39.8847 50.0223C39.9192 49.6577 40.2377 49.4927 40.6061 49.4927C41.0974 49.4927 41.3737 49.7421 41.3737 50.0875C41.3737 50.3792 41.1511 50.6363 40.6982 50.7169V50.6555C41.2278 50.7015 41.4466 50.9356 41.4466 51.2925C41.4466 51.6917 41.105 51.9948 40.5601 51.9948C40.1187 51.9948 39.8386 51.8068 39.7964 51.4192C39.8424 51.3194 39.9192 51.2772 40.0075 51.2772C40.1456 51.2772 40.2109 51.3578 40.2569 51.5765L40.3183 51.8951L40.1533 51.7492C40.2684 51.7953 40.3605 51.8106 40.4488 51.8106C40.798 51.8106 40.9784 51.6303 40.9784 51.2887C40.9784 50.9702 40.798 50.786 40.4488 50.786H40.2914V50.5864H40.4219L40.4181 50.5902Z" fill="#59598E"/>
<path d="M31.8686 41.8979L32.0221 40.1901C32.0221 40.1901 30.6559 40.5317 30.1685 40.0596C29.6773 39.5838 29.5161 38.8508 29.5813 38.1715C29.6466 37.4922 29.9114 36.8514 30.1647 36.2181C32.4634 30.5538 34.4628 24.6361 36.09 18.7414C35.6564 18.6915 35.5182 18.5342 35.0807 18.4805C31.8839 19.9004 28.6181 20.4338 25.1181 20.4223C24.9378 20.7792 24.861 21.5161 24.861 21.5161C24.861 21.5161 26.1006 21.1899 26.7338 21.2436C27.367 21.2973 28.0117 21.6082 28.2957 22.1761C28.6142 22.8247 28.3917 23.5922 28.1652 24.2792C26.6225 28.9151 25.0836 33.551 23.5409 38.1869C23.3144 38.8661 23.0688 39.5799 22.5354 40.0596C21.6796 40.8272 19.2427 40.6506 19.2427 40.6506L19.2811 42.0591L31.8724 41.9017L31.8686 41.8979Z" fill="#8080BA" stroke="#59598E" stroke-width="0.75" stroke-miterlimit="10"/>
<g opacity="0.27">
<mask id="mask5_2_27796" style="mask-type:luminance" maskUnits="userSpaceOnUse" x="1" y="1" width="73" height="73">
<path d="M37.602 73.1327C57.5209 73.1327 73.6683 56.9852 73.6683 37.0663C73.6683 17.1475 57.5209 1 37.602 1C17.6831 1 1.53564 17.1475 1.53564 37.0663C1.53564 56.9852 17.6831 73.1327 37.602 73.1327Z" fill="white"/>
</mask>
<g mask="url(#mask5_2_27796)">
<path d="M44.5387 -3.23161L37.5708 -6.6814L-1.73057 72.6993L5.2373 76.1491L44.5387 -3.23161Z" fill="white"/>
<path d="M66.0399 2.30249L55.791 -2.77173L16.4896 76.609L26.7385 81.6832L66.0399 2.30249Z" fill="white"/>
<path d="M32.0194 -16.6555L21.7705 -21.7297L-17.5309 57.651L-7.28198 62.7252L32.0194 -16.6555Z" fill="white"/>
<path d="M85.1988 6.46859L78.231 3.0188L38.9296 82.3995L45.8975 85.8493L85.1988 6.46859Z" fill="white"/>
</g>
</g>
</svg>
